%TF.GenerationSoftware,KiCad,Pcbnew,(6.0.2)*%
%TF.CreationDate,2022-09-20T17:08:32+02:00*%
%TF.ProjectId,led-board,6c65642d-626f-4617-9264-2e6b69636164,rev?*%
%TF.SameCoordinates,Original*%
%TF.FileFunction,Soldermask,Top*%
%TF.FilePolarity,Negative*%
%FSLAX46Y46*%
G04 Gerber Fmt 4.6, Leading zero omitted, Abs format (unit mm)*
G04 Created by KiCad (PCBNEW (6.0.2)) date 2022-09-20 17:08:32*
%MOMM*%
%LPD*%
G01*
G04 APERTURE LIST*
G04 Aperture macros list*
%AMRoundRect*
0 Rectangle with rounded corners*
0 $1 Rounding radius*
0 $2 $3 $4 $5 $6 $7 $8 $9 X,Y pos of 4 corners*
0 Add a 4 corners polygon primitive as box body*
4,1,4,$2,$3,$4,$5,$6,$7,$8,$9,$2,$3,0*
0 Add four circle primitives for the rounded corners*
1,1,$1+$1,$2,$3*
1,1,$1+$1,$4,$5*
1,1,$1+$1,$6,$7*
1,1,$1+$1,$8,$9*
0 Add four rect primitives between the rounded corners*
20,1,$1+$1,$2,$3,$4,$5,0*
20,1,$1+$1,$4,$5,$6,$7,0*
20,1,$1+$1,$6,$7,$8,$9,0*
20,1,$1+$1,$8,$9,$2,$3,0*%
%AMFreePoly0*
4,1,6,0.500000,-0.850000,-0.500000,-0.850000,-0.500000,0.550000,-0.200000,0.850000,0.500000,0.850000,0.500000,-0.850000,0.500000,-0.850000,$1*%
G04 Aperture macros list end*
%ADD10RoundRect,0.225000X0.250000X-0.225000X0.250000X0.225000X-0.250000X0.225000X-0.250000X-0.225000X0*%
%ADD11RoundRect,0.200000X-0.275000X0.200000X-0.275000X-0.200000X0.275000X-0.200000X0.275000X0.200000X0*%
%ADD12RoundRect,0.225000X-0.250000X0.225000X-0.250000X-0.225000X0.250000X-0.225000X0.250000X0.225000X0*%
%ADD13RoundRect,0.200000X0.200000X0.275000X-0.200000X0.275000X-0.200000X-0.275000X0.200000X-0.275000X0*%
%ADD14RoundRect,0.250000X-0.625000X0.312500X-0.625000X-0.312500X0.625000X-0.312500X0.625000X0.312500X0*%
%ADD15RoundRect,0.150000X-0.625000X0.150000X-0.625000X-0.150000X0.625000X-0.150000X0.625000X0.150000X0*%
%ADD16RoundRect,0.250000X-0.650000X0.350000X-0.650000X-0.350000X0.650000X-0.350000X0.650000X0.350000X0*%
%ADD17RoundRect,0.250000X0.325000X1.100000X-0.325000X1.100000X-0.325000X-1.100000X0.325000X-1.100000X0*%
%ADD18RoundRect,0.225000X0.225000X0.250000X-0.225000X0.250000X-0.225000X-0.250000X0.225000X-0.250000X0*%
%ADD19RoundRect,0.250000X0.725000X-0.600000X0.725000X0.600000X-0.725000X0.600000X-0.725000X-0.600000X0*%
%ADD20O,1.950000X1.700000*%
%ADD21R,2.000000X0.900000*%
%ADD22R,0.900000X2.000000*%
%ADD23R,5.000000X5.000000*%
%ADD24C,1.400000*%
%ADD25R,3.500000X3.500000*%
%ADD26C,3.500000*%
%ADD27RoundRect,0.200000X0.275000X-0.200000X0.275000X0.200000X-0.275000X0.200000X-0.275000X-0.200000X0*%
%ADD28RoundRect,0.250000X0.625000X-0.375000X0.625000X0.375000X-0.625000X0.375000X-0.625000X-0.375000X0*%
%ADD29RoundRect,0.225000X-0.225000X-0.250000X0.225000X-0.250000X0.225000X0.250000X-0.225000X0.250000X0*%
%ADD30RoundRect,0.150000X-0.825000X-0.150000X0.825000X-0.150000X0.825000X0.150000X-0.825000X0.150000X0*%
%ADD31C,5.600000*%
%ADD32RoundRect,0.250000X-0.250000X-0.475000X0.250000X-0.475000X0.250000X0.475000X-0.250000X0.475000X0*%
%ADD33RoundRect,0.200000X-0.200000X-0.275000X0.200000X-0.275000X0.200000X0.275000X-0.200000X0.275000X0*%
%ADD34RoundRect,0.150000X0.150000X-0.512500X0.150000X0.512500X-0.150000X0.512500X-0.150000X-0.512500X0*%
%ADD35R,0.250000X0.550000*%
%ADD36FreePoly0,90.000000*%
%ADD37RoundRect,0.150000X0.150000X-0.825000X0.150000X0.825000X-0.150000X0.825000X-0.150000X-0.825000X0*%
%ADD38R,4.200000X1.800000*%
%ADD39R,2.200000X1.200000*%
%ADD40R,6.400000X5.800000*%
%ADD41R,2.500000X2.300000*%
%ADD42R,2.500000X3.300000*%
%ADD43C,2.000000*%
%ADD44RoundRect,0.250000X0.625000X-0.312500X0.625000X0.312500X-0.625000X0.312500X-0.625000X-0.312500X0*%
%ADD45O,2.800000X1.600000*%
%ADD46C,4.000000*%
%ADD47R,1.200000X0.900000*%
%ADD48R,3.000000X3.000000*%
%ADD49C,3.000000*%
%ADD50O,1.700000X1.950000*%
%ADD51RoundRect,0.250000X0.600000X0.725000X-0.600000X0.725000X-0.600000X-0.725000X0.600000X-0.725000X0*%
%ADD52RoundRect,0.150000X-0.512500X-0.150000X0.512500X-0.150000X0.512500X0.150000X-0.512500X0.150000X0*%
%ADD53RoundRect,0.150000X-0.587500X-0.150000X0.587500X-0.150000X0.587500X0.150000X-0.587500X0.150000X0*%
G04 APERTURE END LIST*
D10*
%TO.C,C2*%
X100350000Y-67275000D03*
X100350000Y-65725000D03*
%TD*%
D11*
%TO.C,R3*%
X38850000Y-69675000D03*
X38850000Y-71325000D03*
%TD*%
D12*
%TO.C,C15*%
X90500000Y-30975000D03*
X90500000Y-32525000D03*
%TD*%
D11*
%TO.C,R19*%
X106750000Y-63425000D03*
X106750000Y-65075000D03*
%TD*%
D13*
%TO.C,R1*%
X100175000Y-64250000D03*
X98525000Y-64250000D03*
%TD*%
D14*
%TO.C,R15*%
X94500000Y-26287500D03*
X94500000Y-29212500D03*
%TD*%
D15*
%TO.C,J3*%
X28350000Y-66500000D03*
X28350000Y-67500000D03*
X28350000Y-68500000D03*
X28350000Y-69500000D03*
D16*
X24475000Y-70800000D03*
X24475000Y-65200000D03*
%TD*%
D17*
%TO.C,C5*%
X40575000Y-65250000D03*
X37625000Y-65250000D03*
%TD*%
D13*
%TO.C,R5*%
X33925000Y-35250000D03*
X32275000Y-35250000D03*
%TD*%
D18*
%TO.C,C4*%
X75375000Y-48750000D03*
X73825000Y-48750000D03*
%TD*%
D19*
%TO.C,J4*%
X27250000Y-36750000D03*
D20*
X27250000Y-34250000D03*
X27250000Y-31750000D03*
X27250000Y-29250000D03*
%TD*%
D21*
%TO.C,U1*%
X96350000Y-67005000D03*
X96350000Y-65735000D03*
X96350000Y-64465000D03*
X96350000Y-63195000D03*
X96350000Y-61925000D03*
X96350000Y-60655000D03*
X96350000Y-59385000D03*
X96350000Y-58115000D03*
X96350000Y-56845000D03*
X96350000Y-55575000D03*
X96350000Y-54305000D03*
X96350000Y-53035000D03*
X96350000Y-51765000D03*
X96350000Y-50495000D03*
D22*
X93565000Y-49495000D03*
X92295000Y-49495000D03*
X91025000Y-49495000D03*
X89755000Y-49495000D03*
X88485000Y-49495000D03*
X87215000Y-49495000D03*
X85945000Y-49495000D03*
X84675000Y-49495000D03*
X83405000Y-49495000D03*
X82135000Y-49495000D03*
D21*
X79350000Y-50495000D03*
X79350000Y-51765000D03*
X79350000Y-53035000D03*
X79350000Y-54305000D03*
X79350000Y-55575000D03*
X79350000Y-56845000D03*
X79350000Y-58115000D03*
X79350000Y-59385000D03*
X79350000Y-60655000D03*
X79350000Y-61925000D03*
X79350000Y-63195000D03*
X79350000Y-64465000D03*
X79350000Y-65735000D03*
X79350000Y-67005000D03*
D23*
X88850000Y-59505000D03*
%TD*%
D24*
%TO.C,J6*%
X114600000Y-37750000D03*
X114600000Y-26750000D03*
D25*
X109600000Y-29750000D03*
D26*
X109600000Y-34750000D03*
%TD*%
D27*
%TO.C,R17*%
X84100000Y-37175000D03*
X84100000Y-38825000D03*
%TD*%
D28*
%TO.C,F1*%
X39600000Y-60650000D03*
X39600000Y-57850000D03*
%TD*%
D29*
%TO.C,C16*%
X81125000Y-40500000D03*
X79575000Y-40500000D03*
%TD*%
D30*
%TO.C,U5*%
X79575000Y-26982500D03*
X79575000Y-28252500D03*
X79575000Y-29522500D03*
X79575000Y-30792500D03*
X74625000Y-30792500D03*
X74625000Y-29522500D03*
X74625000Y-28252500D03*
X74625000Y-26982500D03*
%TD*%
D31*
%TO.C,H2*%
X34600000Y-71250000D03*
%TD*%
D32*
%TO.C,C11*%
X90650000Y-35000000D03*
X92550000Y-35000000D03*
%TD*%
D33*
%TO.C,R4*%
X32275000Y-30250000D03*
X33925000Y-30250000D03*
%TD*%
D34*
%TO.C,U6*%
X80400000Y-36362500D03*
X81350000Y-36362500D03*
X82300000Y-36362500D03*
X82300000Y-38637500D03*
X81350000Y-38637500D03*
X80400000Y-38637500D03*
%TD*%
D31*
%TO.C,H1*%
X34600000Y-26250000D03*
%TD*%
D35*
%TO.C,U3*%
X73850000Y-52425000D03*
X74350000Y-52425000D03*
X74850000Y-52425000D03*
X75350000Y-52425000D03*
X75350000Y-50075000D03*
X74850000Y-50075000D03*
X74350000Y-50075000D03*
X73850000Y-50075000D03*
D36*
X74600000Y-51250000D03*
%TD*%
D37*
%TO.C,U2*%
X73195000Y-64475000D03*
X74465000Y-64475000D03*
X75735000Y-64475000D03*
X77005000Y-64475000D03*
X77005000Y-59525000D03*
X75735000Y-59525000D03*
X74465000Y-59525000D03*
X73195000Y-59525000D03*
%TD*%
D27*
%TO.C,R2*%
X40600000Y-71325000D03*
X40600000Y-69675000D03*
%TD*%
D38*
%TO.C,L1*%
X76100000Y-39850000D03*
X76100000Y-36650000D03*
%TD*%
D39*
%TO.C,Q1*%
X97400000Y-41470000D03*
D40*
X103700000Y-43750000D03*
D39*
X97400000Y-46030000D03*
%TD*%
D41*
%TO.C,D4*%
X53950000Y-28250000D03*
X58250000Y-28250000D03*
%TD*%
D42*
%TO.C,D2*%
X35500000Y-60250000D03*
X28700000Y-60250000D03*
%TD*%
D39*
%TO.C,Q2*%
X97300000Y-26470000D03*
D40*
X103600000Y-28750000D03*
D39*
X97300000Y-31030000D03*
%TD*%
D43*
%TO.C,PS1*%
X44525000Y-33905000D03*
X69175000Y-33905000D03*
X44525000Y-69595000D03*
X69175000Y-69595000D03*
%TD*%
D11*
%TO.C,R6*%
X75350000Y-54425000D03*
X75350000Y-56075000D03*
%TD*%
D33*
%TO.C,R18*%
X84175000Y-40500000D03*
X82525000Y-40500000D03*
%TD*%
D32*
%TO.C,C13*%
X81300000Y-34250000D03*
X79400000Y-34250000D03*
%TD*%
D29*
%TO.C,C10*%
X103575000Y-66750000D03*
X105125000Y-66750000D03*
%TD*%
D12*
%TO.C,C8*%
X90600000Y-36975000D03*
X90600000Y-38525000D03*
%TD*%
D31*
%TO.C,H4*%
X104100000Y-71250000D03*
%TD*%
D44*
%TO.C,R8*%
X97350000Y-39212500D03*
X97350000Y-36287500D03*
%TD*%
D32*
%TO.C,C17*%
X90550000Y-29000000D03*
X92450000Y-29000000D03*
%TD*%
D10*
%TO.C,C1*%
X98600000Y-67275000D03*
X98600000Y-65725000D03*
%TD*%
D13*
%TO.C,R12*%
X90575000Y-40500000D03*
X88925000Y-40500000D03*
%TD*%
D45*
%TO.C,J1*%
X32650000Y-42000000D03*
X32650000Y-55500000D03*
D46*
X38650000Y-52350000D03*
X38650000Y-45150000D03*
%TD*%
D13*
%TO.C,R10*%
X77775000Y-32387500D03*
X79425000Y-32387500D03*
%TD*%
D32*
%TO.C,C18*%
X74050000Y-43000000D03*
X75950000Y-43000000D03*
%TD*%
D12*
%TO.C,C14*%
X81600000Y-31412500D03*
X81600000Y-29862500D03*
%TD*%
D47*
%TO.C,D1*%
X68000000Y-25850000D03*
X68000000Y-29150000D03*
%TD*%
D24*
%TO.C,J7*%
X114600000Y-56750000D03*
X114600000Y-69750000D03*
D48*
X109600000Y-66750000D03*
D49*
X109600000Y-63250000D03*
X109600000Y-59750000D03*
%TD*%
D50*
%TO.C,J2*%
X80500000Y-45275000D03*
X83000000Y-45275000D03*
X85500000Y-45275000D03*
X88000000Y-45275000D03*
X90500000Y-45275000D03*
D51*
X93000000Y-45275000D03*
%TD*%
D27*
%TO.C,R16*%
X102600000Y-61575000D03*
X102600000Y-59925000D03*
%TD*%
D18*
%TO.C,C6*%
X40625000Y-67750000D03*
X39075000Y-67750000D03*
%TD*%
D27*
%TO.C,R11*%
X81600000Y-26812500D03*
X81600000Y-28462500D03*
%TD*%
D13*
%TO.C,R9*%
X74525000Y-32387500D03*
X76175000Y-32387500D03*
%TD*%
D27*
%TO.C,R13*%
X84100000Y-34175000D03*
X84100000Y-35825000D03*
%TD*%
D18*
%TO.C,C12*%
X78075000Y-25387500D03*
X79625000Y-25387500D03*
%TD*%
D24*
%TO.C,J5*%
X114600000Y-52750000D03*
X114600000Y-41750000D03*
D25*
X109600000Y-44750000D03*
D26*
X109600000Y-49750000D03*
%TD*%
D52*
%TO.C,U7*%
X92362500Y-31050000D03*
X92362500Y-32000000D03*
X92362500Y-32950000D03*
X94637500Y-32950000D03*
X94637500Y-31050000D03*
%TD*%
D18*
%TO.C,C3*%
X75625000Y-66750000D03*
X74075000Y-66750000D03*
%TD*%
D53*
%TO.C,Q3*%
X104412500Y-59800000D03*
X104412500Y-61700000D03*
X106287500Y-60750000D03*
%TD*%
D31*
%TO.C,H3*%
X104100000Y-36250000D03*
%TD*%
D11*
%TO.C,R7*%
X73850000Y-54425000D03*
X73850000Y-56075000D03*
%TD*%
D27*
%TO.C,R14*%
X76750000Y-46825000D03*
X76750000Y-45175000D03*
%TD*%
D52*
%TO.C,U4*%
X92462500Y-37050000D03*
X92462500Y-38000000D03*
X92462500Y-38950000D03*
X94737500Y-38950000D03*
X94737500Y-37050000D03*
%TD*%
D53*
%TO.C,D3*%
X32162500Y-31800000D03*
X32162500Y-33700000D03*
X34037500Y-32750000D03*
%TD*%
D17*
%TO.C,C9*%
X105075000Y-64250000D03*
X102125000Y-64250000D03*
%TD*%
D29*
%TO.C,C7*%
X35575000Y-30250000D03*
X37125000Y-30250000D03*
%TD*%
M02*
