M48
; DRILL file {KiCad (6.0.2)} date Tue Sep 20 17:08:32 2022
; FORMAT={-:-/ absolute / inch / decimal}
; #@! TF.CreationDate,2022-09-20T17:08:32+02:00
; #@! TF.GenerationSoftware,Kicad,Pcbnew,(6.0.2)
; #@! TF.FileFunction,Plated,1,2,PTH
FMAT,2
INCH
; #@! TA.AperFunction,Plated,PTH,ViaDrill
T1C0.0118
; #@! TA.AperFunction,Plated,PTH,ComponentDrill
T2C0.0315
; #@! TA.AperFunction,Plated,PTH,ComponentDrill
T3C0.0374
; #@! TA.AperFunction,Plated,PTH,ComponentDrill
T4C0.0394
; #@! TA.AperFunction,Plated,PTH,ComponentDrill
T5C0.0423
; #@! TA.AperFunction,Plated,PTH,ComponentDrill
T6C0.0748
; #@! TA.AperFunction,Plated,PTH,ComponentDrill
T7C0.1063
; #@! TA.AperFunction,Plated,PTH,ComponentDrill
T8C0.1260
%
G90
G05
T1
X0.9843Y-0.9843
X0.9843Y-1.1811
X0.9843Y-1.378
X0.9843Y-1.5748
X0.9843Y-1.7717
X0.9843Y-1.9685
X0.9843Y-2.1654
X0.9843Y-2.2638
X0.9843Y-2.3622
X0.9843Y-2.4606
X1.122Y-2.2638
X1.122Y-2.4705
X1.1319Y-2.5689
X1.1811Y-0.9843
X1.1811Y-1.5748
X1.1811Y-1.7717
X1.1811Y-1.9685
X1.1811Y-2.1654
X1.1811Y-2.6181
X1.2047Y-2.6969
X1.2047Y-2.7362
X1.2707Y-1.2333
X1.2707Y-1.3553
X1.3327Y-2.6575
X1.378Y-1.5748
X1.3976Y-2.6575
X1.437Y-2.6181
X1.437Y-2.6575
X1.4469Y-2.687
X1.4764Y-2.6575
X1.4764Y-2.6969
X1.4862Y-2.7362
X1.5748Y-0.9843
X1.5748Y-1.1811
X1.5748Y-1.5748
X1.624Y-1.3583
X1.6575Y-1.2402
X1.6742Y-2.8081
X1.7264Y-2.0177
X1.7559Y-2.0472
X1.7717Y-0.9843
X1.7717Y-1.1811
X1.7717Y-1.5748
X1.7717Y-1.7717
X1.7717Y-2.3622
X1.7717Y-2.5591
X1.9685Y-0.9843
X1.9685Y-1.5748
X1.9685Y-1.7717
X1.9685Y-1.9685
X1.9685Y-2.3622
X1.9685Y-2.5591
X1.9685Y-2.7559
X2.1654Y-1.378
X2.1654Y-1.5748
X2.1654Y-1.7717
X2.1654Y-1.9685
X2.1654Y-2.3622
X2.1654Y-2.5591
X2.1654Y-2.7559
X2.3622Y-1.1811
X2.3622Y-1.378
X2.3622Y-1.5748
X2.3622Y-1.7717
X2.3622Y-1.9685
X2.3622Y-2.3622
X2.3622Y-2.5591
X2.3622Y-2.7559
X2.5591Y-1.1811
X2.5591Y-1.378
X2.5591Y-1.5748
X2.5591Y-1.7717
X2.5591Y-1.9685
X2.5591Y-2.3622
X2.5591Y-2.5591
X2.5591Y-2.7559
X2.6181Y-1.1516
X2.7402Y-2.0472
X2.7559Y-1.5507
X2.7559Y-1.7717
X2.7559Y-1.9685
X2.7559Y-2.3622
X2.7559Y-2.5591
X2.7697Y-2.0177
X2.8189Y-1.1767
X2.8189Y-1.216
X2.8189Y-1.2554
X2.8287Y-2.2047
X2.8484Y-1.1767
X2.8484Y-1.216
X2.8484Y-1.2554
X2.8681Y-1.8799
X2.878Y-1.1767
X2.878Y-1.216
X2.878Y-1.2554
X2.9035Y-1.7618
X2.9035Y-1.8209
X2.9075Y-2.0866
X2.9331Y-1.7913
X2.9921Y-2.1358
X2.9961Y-1.3681
X2.9961Y-1.6142
X3.0157Y-2.4705
X3.0197Y-2.2008
X3.0217Y-0.9995
X3.0512Y-2.088
X3.0512Y-2.1358
X3.0709Y-0.9503
X3.0709Y-1.0586
X3.0709Y-1.8012
X3.0807Y-1.3637
X3.1496Y-1.717
X3.1693Y-1.3046
X3.1929Y-2.4902
X3.2028Y-1.3046
X3.2087Y-1.5551
X3.2283Y-2.0472
X3.2283Y-2.126
X3.2283Y-2.2047
X3.2283Y-2.2835
X3.2283Y-2.3622
X3.2323Y-1.8799
X3.2382Y-1.3046
X3.2677Y-1.5551
X3.2677Y-2.4803
X3.2776Y-1.7126
X3.2913Y-2.5394
X3.3012Y-2.4409
X3.3071Y-2.0472
X3.3071Y-2.126
X3.3071Y-2.2047
X3.3071Y-2.2835
X3.3465Y-0.9601
X3.3465Y-2.4803
X3.3602Y-1.4665
X3.3661Y-2.2343
X3.4055Y-1.3189
X3.4055Y-1.7126
X3.4055Y-2.0472
X3.4055Y-2.126
X3.4055Y-2.2047
X3.4154Y-1.5507
X3.4547Y-1.5354
X3.4646Y-1.4173
X3.4646Y-1.5945
X3.4646Y-2.6378
X3.4941Y-1.7126
X3.498Y-1.2205
X3.5039Y-1.4567
X3.5039Y-1.5354
X3.5236Y-2.0472
X3.5236Y-2.126
X3.5276Y-1.3681
X3.5433Y-0.9843
X3.5433Y-2.6378
X3.5827Y-2.2047
X3.5827Y-2.4803
X3.6024Y-2.0472
X3.6024Y-2.126
X3.622Y-1.063
X3.622Y-2.2047
X3.622Y-2.2441
X3.622Y-2.4016
X3.622Y-2.4409
X3.622Y-2.4803
X3.622Y-2.6378
X3.6614Y-2.0472
X3.6614Y-2.126
X3.6949Y-2.2933
X3.7008Y-2.4016
X3.7008Y-2.4803
X3.7008Y-2.6378
X3.7402Y-0.9843
X3.7402Y-1.6929
X3.7402Y-1.7717
X3.7402Y-1.8504
X3.8189Y-1.1417
X3.8189Y-1.2992
X3.8189Y-1.8898
X3.8287Y-1.752
X3.8976Y-1.1417
X3.8976Y-1.2205
X3.8976Y-1.2992
X3.8976Y-1.8898
X3.9075Y-1.5453
X3.9213Y-2.0472
X3.937Y-0.9843
X3.937Y-1.9685
X3.937Y-2.0965
X3.937Y-2.1654
X3.937Y-2.2441
X3.937Y-2.3228
X3.9409Y-2.4902
X3.9427Y-2.37
X3.9508Y-2.0472
X3.9665Y-1.9094
X3.9764Y-2.4803
X3.9803Y-2.0472
X4.0059Y-1.9685
X4.0098Y-2.0472
X4.0157Y-2.0965
X4.0157Y-2.1654
X4.0157Y-2.2441
X4.0157Y-2.3228
X4.0157Y-2.5984
X4.0157Y-2.6378
X4.065Y-2.6673
X4.1339Y-0.9843
X4.1772Y-2.6181
X4.1772Y-2.6476
X4.2067Y-2.6181
X4.2067Y-2.6476
X4.2067Y-2.6772
X4.2224Y-1.2992
X4.2224Y-1.5453
X4.2717Y-2.1161
X4.2717Y-2.1654
X4.2717Y-2.2146
X4.2717Y-2.2638
X4.3307Y-0.9843
X4.3307Y-2.1161
X4.3307Y-2.1654
X4.3307Y-2.2146
X4.3307Y-2.2638
X4.5276Y-0.9843
X4.5276Y-1.1811
X4.5276Y-1.378
X4.5276Y-1.7717
X4.5276Y-1.9685
X4.5276Y-2.3622
X4.5276Y-2.5591
X4.7244Y-0.9843
X4.7244Y-1.1811
X4.7244Y-1.378
X4.7244Y-1.5748
X4.7244Y-1.7717
X4.7244Y-1.9685
X4.7244Y-2.1654
X4.7244Y-2.3622
X4.7244Y-2.5591
X4.7244Y-2.7559
T3
X1.0728Y-1.1516
X1.0728Y-1.25
X1.0728Y-1.3484
X1.0728Y-1.4469
X3.1693Y-1.7825
X3.2677Y-1.7825
X3.3661Y-1.7825
X3.4646Y-1.7825
X3.563Y-1.7825
X3.6614Y-1.7825
T4
X4.5118Y-1.0531
X4.5118Y-1.4862
X4.5118Y-1.6437
X4.5118Y-2.0768
X4.5118Y-2.2343
X4.5118Y-2.7461
T5
X1.753Y-1.3348
X1.753Y-2.74
X2.7234Y-1.3348
X2.7234Y-2.74
T6
X4.315Y-1.1713
X4.315Y-1.3681
X4.315Y-1.7618
X4.315Y-1.9587
X4.315Y-2.3524
X4.315Y-2.4902
X4.315Y-2.628
T7
X1.5217Y-1.7776
X1.5217Y-2.061
T8
X1.3622Y-1.0335
X1.3622Y-2.8051
X4.0984Y-1.4272
X4.0984Y-2.8051
T2
G00X1.2657Y-1.6535
M15
G01X1.3051Y-1.6535
M16
G05
G00X1.2657Y-2.185
M15
G01X1.3051Y-2.185
M16
G05
T0
M30
