%TF.GenerationSoftware,KiCad,Pcbnew,(6.0.2)*%
%TF.CreationDate,2022-09-20T17:08:32+02:00*%
%TF.ProjectId,led-board,6c65642d-626f-4617-9264-2e6b69636164,rev?*%
%TF.SameCoordinates,Original*%
%TF.FileFunction,Legend,Top*%
%TF.FilePolarity,Positive*%
%FSLAX46Y46*%
G04 Gerber Fmt 4.6, Leading zero omitted, Abs format (unit mm)*
G04 Created by KiCad (PCBNEW (6.0.2)) date 2022-09-20 17:08:32*
%MOMM*%
%LPD*%
G01*
G04 APERTURE LIST*
G04 Aperture macros list*
%AMRoundRect*
0 Rectangle with rounded corners*
0 $1 Rounding radius*
0 $2 $3 $4 $5 $6 $7 $8 $9 X,Y pos of 4 corners*
0 Add a 4 corners polygon primitive as box body*
4,1,4,$2,$3,$4,$5,$6,$7,$8,$9,$2,$3,0*
0 Add four circle primitives for the rounded corners*
1,1,$1+$1,$2,$3*
1,1,$1+$1,$4,$5*
1,1,$1+$1,$6,$7*
1,1,$1+$1,$8,$9*
0 Add four rect primitives between the rounded corners*
20,1,$1+$1,$2,$3,$4,$5,0*
20,1,$1+$1,$4,$5,$6,$7,0*
20,1,$1+$1,$6,$7,$8,$9,0*
20,1,$1+$1,$8,$9,$2,$3,0*%
%AMFreePoly0*
4,1,6,0.500000,-0.850000,-0.500000,-0.850000,-0.500000,0.550000,-0.200000,0.850000,0.500000,0.850000,0.500000,-0.850000,0.500000,-0.850000,$1*%
G04 Aperture macros list end*
%ADD10C,0.150000*%
%ADD11C,0.100000*%
%ADD12C,0.120000*%
%ADD13C,0.200000*%
%ADD14RoundRect,0.225000X0.250000X-0.225000X0.250000X0.225000X-0.250000X0.225000X-0.250000X-0.225000X0*%
%ADD15RoundRect,0.200000X-0.275000X0.200000X-0.275000X-0.200000X0.275000X-0.200000X0.275000X0.200000X0*%
%ADD16RoundRect,0.225000X-0.250000X0.225000X-0.250000X-0.225000X0.250000X-0.225000X0.250000X0.225000X0*%
%ADD17RoundRect,0.200000X0.200000X0.275000X-0.200000X0.275000X-0.200000X-0.275000X0.200000X-0.275000X0*%
%ADD18RoundRect,0.250000X-0.625000X0.312500X-0.625000X-0.312500X0.625000X-0.312500X0.625000X0.312500X0*%
%ADD19RoundRect,0.150000X-0.625000X0.150000X-0.625000X-0.150000X0.625000X-0.150000X0.625000X0.150000X0*%
%ADD20RoundRect,0.250000X-0.650000X0.350000X-0.650000X-0.350000X0.650000X-0.350000X0.650000X0.350000X0*%
%ADD21RoundRect,0.250000X0.325000X1.100000X-0.325000X1.100000X-0.325000X-1.100000X0.325000X-1.100000X0*%
%ADD22RoundRect,0.225000X0.225000X0.250000X-0.225000X0.250000X-0.225000X-0.250000X0.225000X-0.250000X0*%
%ADD23RoundRect,0.250000X0.725000X-0.600000X0.725000X0.600000X-0.725000X0.600000X-0.725000X-0.600000X0*%
%ADD24O,1.950000X1.700000*%
%ADD25R,2.000000X0.900000*%
%ADD26R,0.900000X2.000000*%
%ADD27R,5.000000X5.000000*%
%ADD28C,1.400000*%
%ADD29R,3.500000X3.500000*%
%ADD30C,3.500000*%
%ADD31RoundRect,0.200000X0.275000X-0.200000X0.275000X0.200000X-0.275000X0.200000X-0.275000X-0.200000X0*%
%ADD32RoundRect,0.250000X0.625000X-0.375000X0.625000X0.375000X-0.625000X0.375000X-0.625000X-0.375000X0*%
%ADD33RoundRect,0.225000X-0.225000X-0.250000X0.225000X-0.250000X0.225000X0.250000X-0.225000X0.250000X0*%
%ADD34RoundRect,0.150000X-0.825000X-0.150000X0.825000X-0.150000X0.825000X0.150000X-0.825000X0.150000X0*%
%ADD35C,5.600000*%
%ADD36RoundRect,0.250000X-0.250000X-0.475000X0.250000X-0.475000X0.250000X0.475000X-0.250000X0.475000X0*%
%ADD37RoundRect,0.200000X-0.200000X-0.275000X0.200000X-0.275000X0.200000X0.275000X-0.200000X0.275000X0*%
%ADD38RoundRect,0.150000X0.150000X-0.512500X0.150000X0.512500X-0.150000X0.512500X-0.150000X-0.512500X0*%
%ADD39R,0.250000X0.550000*%
%ADD40FreePoly0,90.000000*%
%ADD41RoundRect,0.150000X0.150000X-0.825000X0.150000X0.825000X-0.150000X0.825000X-0.150000X-0.825000X0*%
%ADD42R,4.200000X1.800000*%
%ADD43R,2.200000X1.200000*%
%ADD44R,6.400000X5.800000*%
%ADD45R,2.500000X2.300000*%
%ADD46R,2.500000X3.300000*%
%ADD47C,2.000000*%
%ADD48RoundRect,0.250000X0.625000X-0.312500X0.625000X0.312500X-0.625000X0.312500X-0.625000X-0.312500X0*%
%ADD49O,2.800000X1.600000*%
%ADD50C,4.000000*%
%ADD51R,1.200000X0.900000*%
%ADD52R,3.000000X3.000000*%
%ADD53C,3.000000*%
%ADD54O,1.700000X1.950000*%
%ADD55RoundRect,0.250000X0.600000X0.725000X-0.600000X0.725000X-0.600000X-0.725000X0.600000X-0.725000X0*%
%ADD56RoundRect,0.150000X-0.512500X-0.150000X0.512500X-0.150000X0.512500X0.150000X-0.512500X0.150000X0*%
%ADD57RoundRect,0.150000X-0.587500X-0.150000X0.587500X-0.150000X0.587500X0.150000X-0.587500X0.150000X0*%
G04 APERTURE END LIST*
D10*
X121238095Y-69640000D02*
X121142857Y-69592380D01*
X121000000Y-69592380D01*
X120857142Y-69640000D01*
X120761904Y-69735238D01*
X120714285Y-69830476D01*
X120666666Y-70020952D01*
X120666666Y-70163809D01*
X120714285Y-70354285D01*
X120761904Y-70449523D01*
X120857142Y-70544761D01*
X121000000Y-70592380D01*
X121095238Y-70592380D01*
X121238095Y-70544761D01*
X121285714Y-70497142D01*
X121285714Y-70163809D01*
X121095238Y-70163809D01*
X121714285Y-70592380D02*
X121714285Y-69592380D01*
X122285714Y-70592380D01*
X122285714Y-69592380D01*
X122761904Y-70592380D02*
X122761904Y-69592380D01*
X123000000Y-69592380D01*
X123142857Y-69640000D01*
X123238095Y-69735238D01*
X123285714Y-69830476D01*
X123333333Y-70020952D01*
X123333333Y-70163809D01*
X123285714Y-70354285D01*
X123238095Y-70449523D01*
X123142857Y-70544761D01*
X123000000Y-70592380D01*
X122761904Y-70592380D01*
X120547619Y-72202380D02*
X120547619Y-71202380D01*
X120785714Y-71202380D01*
X120928571Y-71250000D01*
X121023809Y-71345238D01*
X121071428Y-71440476D01*
X121119047Y-71630952D01*
X121119047Y-71773809D01*
X121071428Y-71964285D01*
X121023809Y-72059523D01*
X120928571Y-72154761D01*
X120785714Y-72202380D01*
X120547619Y-72202380D01*
X121976190Y-72202380D02*
X121976190Y-71678571D01*
X121928571Y-71583333D01*
X121833333Y-71535714D01*
X121642857Y-71535714D01*
X121547619Y-71583333D01*
X121976190Y-72154761D02*
X121880952Y-72202380D01*
X121642857Y-72202380D01*
X121547619Y-72154761D01*
X121500000Y-72059523D01*
X121500000Y-71964285D01*
X121547619Y-71869047D01*
X121642857Y-71821428D01*
X121880952Y-71821428D01*
X121976190Y-71773809D01*
X122309523Y-71535714D02*
X122690476Y-71535714D01*
X122452380Y-71202380D02*
X122452380Y-72059523D01*
X122500000Y-72154761D01*
X122595238Y-72202380D01*
X122690476Y-72202380D01*
X123452380Y-72202380D02*
X123452380Y-71678571D01*
X123404761Y-71583333D01*
X123309523Y-71535714D01*
X123119047Y-71535714D01*
X123023809Y-71583333D01*
X123452380Y-72154761D02*
X123357142Y-72202380D01*
X123119047Y-72202380D01*
X123023809Y-72154761D01*
X122976190Y-72059523D01*
X122976190Y-71964285D01*
X123023809Y-71869047D01*
X123119047Y-71821428D01*
X123357142Y-71821428D01*
X123452380Y-71773809D01*
X120714285Y-73431428D02*
X121476190Y-73431428D01*
X121095238Y-73812380D02*
X121095238Y-73050476D01*
X122428571Y-72812380D02*
X121952380Y-72812380D01*
X121904761Y-73288571D01*
X121952380Y-73240952D01*
X122047619Y-73193333D01*
X122285714Y-73193333D01*
X122380952Y-73240952D01*
X122428571Y-73288571D01*
X122476190Y-73383809D01*
X122476190Y-73621904D01*
X122428571Y-73717142D01*
X122380952Y-73764761D01*
X122285714Y-73812380D01*
X122047619Y-73812380D01*
X121952380Y-73764761D01*
X121904761Y-73717142D01*
X122761904Y-72812380D02*
X123095238Y-73812380D01*
X123428571Y-72812380D01*
X35488095Y-32156428D02*
X36250000Y-32156428D01*
X35869047Y-32537380D02*
X35869047Y-31775476D01*
X37250000Y-32537380D02*
X36678571Y-32537380D01*
X36964285Y-32537380D02*
X36964285Y-31537380D01*
X36869047Y-31680238D01*
X36773809Y-31775476D01*
X36678571Y-31823095D01*
X38154761Y-31537380D02*
X37678571Y-31537380D01*
X37630952Y-32013571D01*
X37678571Y-31965952D01*
X37773809Y-31918333D01*
X38011904Y-31918333D01*
X38107142Y-31965952D01*
X38154761Y-32013571D01*
X38202380Y-32108809D01*
X38202380Y-32346904D01*
X38154761Y-32442142D01*
X38107142Y-32489761D01*
X38011904Y-32537380D01*
X37773809Y-32537380D01*
X37678571Y-32489761D01*
X37630952Y-32442142D01*
X38488095Y-31537380D02*
X38821428Y-32537380D01*
X39154761Y-31537380D01*
X36083333Y-34052142D02*
X36035714Y-34099761D01*
X35892857Y-34147380D01*
X35797619Y-34147380D01*
X35654761Y-34099761D01*
X35559523Y-34004523D01*
X35511904Y-33909285D01*
X35464285Y-33718809D01*
X35464285Y-33575952D01*
X35511904Y-33385476D01*
X35559523Y-33290238D01*
X35654761Y-33195000D01*
X35797619Y-33147380D01*
X35892857Y-33147380D01*
X36035714Y-33195000D01*
X36083333Y-33242619D01*
X36464285Y-33861666D02*
X36940476Y-33861666D01*
X36369047Y-34147380D02*
X36702380Y-33147380D01*
X37035714Y-34147380D01*
X37369047Y-34147380D02*
X37369047Y-33147380D01*
X37940476Y-34147380D01*
X37940476Y-33147380D01*
X38416666Y-34147380D02*
X38416666Y-33147380D01*
X38416666Y-33623571D02*
X38988095Y-33623571D01*
X38988095Y-34147380D02*
X38988095Y-33147380D01*
X36202380Y-35662142D02*
X36154761Y-35709761D01*
X36011904Y-35757380D01*
X35916666Y-35757380D01*
X35773809Y-35709761D01*
X35678571Y-35614523D01*
X35630952Y-35519285D01*
X35583333Y-35328809D01*
X35583333Y-35185952D01*
X35630952Y-34995476D01*
X35678571Y-34900238D01*
X35773809Y-34805000D01*
X35916666Y-34757380D01*
X36011904Y-34757380D01*
X36154761Y-34805000D01*
X36202380Y-34852619D01*
X36583333Y-35471666D02*
X37059523Y-35471666D01*
X36488095Y-35757380D02*
X36821428Y-34757380D01*
X37154761Y-35757380D01*
X37488095Y-35757380D02*
X37488095Y-34757380D01*
X38059523Y-35757380D01*
X38059523Y-34757380D01*
X39011904Y-35757380D02*
X38535714Y-35757380D01*
X38535714Y-34757380D01*
X36488095Y-36415000D02*
X36392857Y-36367380D01*
X36250000Y-36367380D01*
X36107142Y-36415000D01*
X36011904Y-36510238D01*
X35964285Y-36605476D01*
X35916666Y-36795952D01*
X35916666Y-36938809D01*
X35964285Y-37129285D01*
X36011904Y-37224523D01*
X36107142Y-37319761D01*
X36250000Y-37367380D01*
X36345238Y-37367380D01*
X36488095Y-37319761D01*
X36535714Y-37272142D01*
X36535714Y-36938809D01*
X36345238Y-36938809D01*
X36964285Y-37367380D02*
X36964285Y-36367380D01*
X37535714Y-37367380D01*
X37535714Y-36367380D01*
X38011904Y-37367380D02*
X38011904Y-36367380D01*
X38250000Y-36367380D01*
X38392857Y-36415000D01*
X38488095Y-36510238D01*
X38535714Y-36605476D01*
X38583333Y-36795952D01*
X38583333Y-36938809D01*
X38535714Y-37129285D01*
X38488095Y-37224523D01*
X38392857Y-37319761D01*
X38250000Y-37367380D01*
X38011904Y-37367380D01*
%TO.C,C2*%
X100707142Y-69416666D02*
X100754761Y-69464285D01*
X100802380Y-69607142D01*
X100802380Y-69702380D01*
X100754761Y-69845238D01*
X100659523Y-69940476D01*
X100564285Y-69988095D01*
X100373809Y-70035714D01*
X100230952Y-70035714D01*
X100040476Y-69988095D01*
X99945238Y-69940476D01*
X99850000Y-69845238D01*
X99802380Y-69702380D01*
X99802380Y-69607142D01*
X99850000Y-69464285D01*
X99897619Y-69416666D01*
X99897619Y-69035714D02*
X99850000Y-68988095D01*
X99802380Y-68892857D01*
X99802380Y-68654761D01*
X99850000Y-68559523D01*
X99897619Y-68511904D01*
X99992857Y-68464285D01*
X100088095Y-68464285D01*
X100230952Y-68511904D01*
X100802380Y-69083333D01*
X100802380Y-68464285D01*
%TO.C,R3*%
X38683333Y-73202380D02*
X38350000Y-72726190D01*
X38111904Y-73202380D02*
X38111904Y-72202380D01*
X38492857Y-72202380D01*
X38588095Y-72250000D01*
X38635714Y-72297619D01*
X38683333Y-72392857D01*
X38683333Y-72535714D01*
X38635714Y-72630952D01*
X38588095Y-72678571D01*
X38492857Y-72726190D01*
X38111904Y-72726190D01*
X39016666Y-72202380D02*
X39635714Y-72202380D01*
X39302380Y-72583333D01*
X39445238Y-72583333D01*
X39540476Y-72630952D01*
X39588095Y-72678571D01*
X39635714Y-72773809D01*
X39635714Y-73011904D01*
X39588095Y-73107142D01*
X39540476Y-73154761D01*
X39445238Y-73202380D01*
X39159523Y-73202380D01*
X39064285Y-73154761D01*
X39016666Y-73107142D01*
%TO.C,C15*%
X87457142Y-32107142D02*
X87409523Y-32154761D01*
X87266666Y-32202380D01*
X87171428Y-32202380D01*
X87028571Y-32154761D01*
X86933333Y-32059523D01*
X86885714Y-31964285D01*
X86838095Y-31773809D01*
X86838095Y-31630952D01*
X86885714Y-31440476D01*
X86933333Y-31345238D01*
X87028571Y-31250000D01*
X87171428Y-31202380D01*
X87266666Y-31202380D01*
X87409523Y-31250000D01*
X87457142Y-31297619D01*
X88409523Y-32202380D02*
X87838095Y-32202380D01*
X88123809Y-32202380D02*
X88123809Y-31202380D01*
X88028571Y-31345238D01*
X87933333Y-31440476D01*
X87838095Y-31488095D01*
X89314285Y-31202380D02*
X88838095Y-31202380D01*
X88790476Y-31678571D01*
X88838095Y-31630952D01*
X88933333Y-31583333D01*
X89171428Y-31583333D01*
X89266666Y-31630952D01*
X89314285Y-31678571D01*
X89361904Y-31773809D01*
X89361904Y-32011904D01*
X89314285Y-32107142D01*
X89266666Y-32154761D01*
X89171428Y-32202380D01*
X88933333Y-32202380D01*
X88838095Y-32154761D01*
X88790476Y-32107142D01*
%TO.C,R19*%
X105857142Y-68452380D02*
X105523809Y-67976190D01*
X105285714Y-68452380D02*
X105285714Y-67452380D01*
X105666666Y-67452380D01*
X105761904Y-67500000D01*
X105809523Y-67547619D01*
X105857142Y-67642857D01*
X105857142Y-67785714D01*
X105809523Y-67880952D01*
X105761904Y-67928571D01*
X105666666Y-67976190D01*
X105285714Y-67976190D01*
X106809523Y-68452380D02*
X106238095Y-68452380D01*
X106523809Y-68452380D02*
X106523809Y-67452380D01*
X106428571Y-67595238D01*
X106333333Y-67690476D01*
X106238095Y-67738095D01*
X107285714Y-68452380D02*
X107476190Y-68452380D01*
X107571428Y-68404761D01*
X107619047Y-68357142D01*
X107714285Y-68214285D01*
X107761904Y-68023809D01*
X107761904Y-67642857D01*
X107714285Y-67547619D01*
X107666666Y-67500000D01*
X107571428Y-67452380D01*
X107380952Y-67452380D01*
X107285714Y-67500000D01*
X107238095Y-67547619D01*
X107190476Y-67642857D01*
X107190476Y-67880952D01*
X107238095Y-67976190D01*
X107285714Y-68023809D01*
X107380952Y-68071428D01*
X107571428Y-68071428D01*
X107666666Y-68023809D01*
X107714285Y-67976190D01*
X107761904Y-67880952D01*
%TO.C,R1*%
X98583333Y-63202380D02*
X98250000Y-62726190D01*
X98011904Y-63202380D02*
X98011904Y-62202380D01*
X98392857Y-62202380D01*
X98488095Y-62250000D01*
X98535714Y-62297619D01*
X98583333Y-62392857D01*
X98583333Y-62535714D01*
X98535714Y-62630952D01*
X98488095Y-62678571D01*
X98392857Y-62726190D01*
X98011904Y-62726190D01*
X99535714Y-63202380D02*
X98964285Y-63202380D01*
X99250000Y-63202380D02*
X99250000Y-62202380D01*
X99154761Y-62345238D01*
X99059523Y-62440476D01*
X98964285Y-62488095D01*
%TO.C,R15*%
X91207142Y-26702380D02*
X90873809Y-26226190D01*
X90635714Y-26702380D02*
X90635714Y-25702380D01*
X91016666Y-25702380D01*
X91111904Y-25750000D01*
X91159523Y-25797619D01*
X91207142Y-25892857D01*
X91207142Y-26035714D01*
X91159523Y-26130952D01*
X91111904Y-26178571D01*
X91016666Y-26226190D01*
X90635714Y-26226190D01*
X92159523Y-26702380D02*
X91588095Y-26702380D01*
X91873809Y-26702380D02*
X91873809Y-25702380D01*
X91778571Y-25845238D01*
X91683333Y-25940476D01*
X91588095Y-25988095D01*
X93064285Y-25702380D02*
X92588095Y-25702380D01*
X92540476Y-26178571D01*
X92588095Y-26130952D01*
X92683333Y-26083333D01*
X92921428Y-26083333D01*
X93016666Y-26130952D01*
X93064285Y-26178571D01*
X93111904Y-26273809D01*
X93111904Y-26511904D01*
X93064285Y-26607142D01*
X93016666Y-26654761D01*
X92921428Y-26702380D01*
X92683333Y-26702380D01*
X92588095Y-26654761D01*
X92540476Y-26607142D01*
%TO.C,J3*%
X29996666Y-67452380D02*
X29996666Y-68166666D01*
X29949047Y-68309523D01*
X29853809Y-68404761D01*
X29710952Y-68452380D01*
X29615714Y-68452380D01*
X30377619Y-67452380D02*
X30996666Y-67452380D01*
X30663333Y-67833333D01*
X30806190Y-67833333D01*
X30901428Y-67880952D01*
X30949047Y-67928571D01*
X30996666Y-68023809D01*
X30996666Y-68261904D01*
X30949047Y-68357142D01*
X30901428Y-68404761D01*
X30806190Y-68452380D01*
X30520476Y-68452380D01*
X30425238Y-68404761D01*
X30377619Y-68357142D01*
%TO.C,C5*%
X35333333Y-65607142D02*
X35285714Y-65654761D01*
X35142857Y-65702380D01*
X35047619Y-65702380D01*
X34904761Y-65654761D01*
X34809523Y-65559523D01*
X34761904Y-65464285D01*
X34714285Y-65273809D01*
X34714285Y-65130952D01*
X34761904Y-64940476D01*
X34809523Y-64845238D01*
X34904761Y-64750000D01*
X35047619Y-64702380D01*
X35142857Y-64702380D01*
X35285714Y-64750000D01*
X35333333Y-64797619D01*
X36238095Y-64702380D02*
X35761904Y-64702380D01*
X35714285Y-65178571D01*
X35761904Y-65130952D01*
X35857142Y-65083333D01*
X36095238Y-65083333D01*
X36190476Y-65130952D01*
X36238095Y-65178571D01*
X36285714Y-65273809D01*
X36285714Y-65511904D01*
X36238095Y-65607142D01*
X36190476Y-65654761D01*
X36095238Y-65702380D01*
X35857142Y-65702380D01*
X35761904Y-65654761D01*
X35714285Y-65607142D01*
%TO.C,R5*%
X32833333Y-38452380D02*
X32500000Y-37976190D01*
X32261904Y-38452380D02*
X32261904Y-37452380D01*
X32642857Y-37452380D01*
X32738095Y-37500000D01*
X32785714Y-37547619D01*
X32833333Y-37642857D01*
X32833333Y-37785714D01*
X32785714Y-37880952D01*
X32738095Y-37928571D01*
X32642857Y-37976190D01*
X32261904Y-37976190D01*
X33738095Y-37452380D02*
X33261904Y-37452380D01*
X33214285Y-37928571D01*
X33261904Y-37880952D01*
X33357142Y-37833333D01*
X33595238Y-37833333D01*
X33690476Y-37880952D01*
X33738095Y-37928571D01*
X33785714Y-38023809D01*
X33785714Y-38261904D01*
X33738095Y-38357142D01*
X33690476Y-38404761D01*
X33595238Y-38452380D01*
X33357142Y-38452380D01*
X33261904Y-38404761D01*
X33214285Y-38357142D01*
%TO.C,C4*%
X73833333Y-47607142D02*
X73785714Y-47654761D01*
X73642857Y-47702380D01*
X73547619Y-47702380D01*
X73404761Y-47654761D01*
X73309523Y-47559523D01*
X73261904Y-47464285D01*
X73214285Y-47273809D01*
X73214285Y-47130952D01*
X73261904Y-46940476D01*
X73309523Y-46845238D01*
X73404761Y-46750000D01*
X73547619Y-46702380D01*
X73642857Y-46702380D01*
X73785714Y-46750000D01*
X73833333Y-46797619D01*
X74690476Y-47035714D02*
X74690476Y-47702380D01*
X74452380Y-46654761D02*
X74214285Y-47369047D01*
X74833333Y-47369047D01*
%TO.C,J4*%
X26916666Y-24952380D02*
X26916666Y-25666666D01*
X26869047Y-25809523D01*
X26773809Y-25904761D01*
X26630952Y-25952380D01*
X26535714Y-25952380D01*
X27821428Y-25285714D02*
X27821428Y-25952380D01*
X27583333Y-24904761D02*
X27345238Y-25619047D01*
X27964285Y-25619047D01*
%TO.C,U1*%
X76588095Y-72952380D02*
X76588095Y-73761904D01*
X76635714Y-73857142D01*
X76683333Y-73904761D01*
X76778571Y-73952380D01*
X76969047Y-73952380D01*
X77064285Y-73904761D01*
X77111904Y-73857142D01*
X77159523Y-73761904D01*
X77159523Y-72952380D01*
X78159523Y-73952380D02*
X77588095Y-73952380D01*
X77873809Y-73952380D02*
X77873809Y-72952380D01*
X77778571Y-73095238D01*
X77683333Y-73190476D01*
X77588095Y-73238095D01*
%TO.C,J6*%
X122416666Y-25952380D02*
X122416666Y-26666666D01*
X122369047Y-26809523D01*
X122273809Y-26904761D01*
X122130952Y-26952380D01*
X122035714Y-26952380D01*
X123321428Y-25952380D02*
X123130952Y-25952380D01*
X123035714Y-26000000D01*
X122988095Y-26047619D01*
X122892857Y-26190476D01*
X122845238Y-26380952D01*
X122845238Y-26761904D01*
X122892857Y-26857142D01*
X122940476Y-26904761D01*
X123035714Y-26952380D01*
X123226190Y-26952380D01*
X123321428Y-26904761D01*
X123369047Y-26857142D01*
X123416666Y-26761904D01*
X123416666Y-26523809D01*
X123369047Y-26428571D01*
X123321428Y-26380952D01*
X123226190Y-26333333D01*
X123035714Y-26333333D01*
X122940476Y-26380952D01*
X122892857Y-26428571D01*
X122845238Y-26523809D01*
X109707142Y-38321428D02*
X109707142Y-37178571D01*
X110278571Y-37750000D02*
X109135714Y-37750000D01*
X109707142Y-27321428D02*
X109707142Y-26178571D01*
%TO.C,R17*%
X85707142Y-38452380D02*
X85373809Y-37976190D01*
X85135714Y-38452380D02*
X85135714Y-37452380D01*
X85516666Y-37452380D01*
X85611904Y-37500000D01*
X85659523Y-37547619D01*
X85707142Y-37642857D01*
X85707142Y-37785714D01*
X85659523Y-37880952D01*
X85611904Y-37928571D01*
X85516666Y-37976190D01*
X85135714Y-37976190D01*
X86659523Y-38452380D02*
X86088095Y-38452380D01*
X86373809Y-38452380D02*
X86373809Y-37452380D01*
X86278571Y-37595238D01*
X86183333Y-37690476D01*
X86088095Y-37738095D01*
X86992857Y-37452380D02*
X87659523Y-37452380D01*
X87230952Y-38452380D01*
%TO.C,F1*%
X39166666Y-62178571D02*
X38833333Y-62178571D01*
X38833333Y-62702380D02*
X38833333Y-61702380D01*
X39309523Y-61702380D01*
X40214285Y-62702380D02*
X39642857Y-62702380D01*
X39928571Y-62702380D02*
X39928571Y-61702380D01*
X39833333Y-61845238D01*
X39738095Y-61940476D01*
X39642857Y-61988095D01*
%TO.C,C16*%
X85607142Y-40857142D02*
X85559523Y-40904761D01*
X85416666Y-40952380D01*
X85321428Y-40952380D01*
X85178571Y-40904761D01*
X85083333Y-40809523D01*
X85035714Y-40714285D01*
X84988095Y-40523809D01*
X84988095Y-40380952D01*
X85035714Y-40190476D01*
X85083333Y-40095238D01*
X85178571Y-40000000D01*
X85321428Y-39952380D01*
X85416666Y-39952380D01*
X85559523Y-40000000D01*
X85607142Y-40047619D01*
X86559523Y-40952380D02*
X85988095Y-40952380D01*
X86273809Y-40952380D02*
X86273809Y-39952380D01*
X86178571Y-40095238D01*
X86083333Y-40190476D01*
X85988095Y-40238095D01*
X87416666Y-39952380D02*
X87226190Y-39952380D01*
X87130952Y-40000000D01*
X87083333Y-40047619D01*
X86988095Y-40190476D01*
X86940476Y-40380952D01*
X86940476Y-40761904D01*
X86988095Y-40857142D01*
X87035714Y-40904761D01*
X87130952Y-40952380D01*
X87321428Y-40952380D01*
X87416666Y-40904761D01*
X87464285Y-40857142D01*
X87511904Y-40761904D01*
X87511904Y-40523809D01*
X87464285Y-40428571D01*
X87416666Y-40380952D01*
X87321428Y-40333333D01*
X87130952Y-40333333D01*
X87035714Y-40380952D01*
X86988095Y-40428571D01*
X86940476Y-40523809D01*
%TO.C,U5*%
X74838095Y-24939880D02*
X74838095Y-25749404D01*
X74885714Y-25844642D01*
X74933333Y-25892261D01*
X75028571Y-25939880D01*
X75219047Y-25939880D01*
X75314285Y-25892261D01*
X75361904Y-25844642D01*
X75409523Y-25749404D01*
X75409523Y-24939880D01*
X76361904Y-24939880D02*
X75885714Y-24939880D01*
X75838095Y-25416071D01*
X75885714Y-25368452D01*
X75980952Y-25320833D01*
X76219047Y-25320833D01*
X76314285Y-25368452D01*
X76361904Y-25416071D01*
X76409523Y-25511309D01*
X76409523Y-25749404D01*
X76361904Y-25844642D01*
X76314285Y-25892261D01*
X76219047Y-25939880D01*
X75980952Y-25939880D01*
X75885714Y-25892261D01*
X75838095Y-25844642D01*
%TO.C,H2*%
X32838095Y-67952380D02*
X32838095Y-66952380D01*
X32838095Y-67428571D02*
X33409523Y-67428571D01*
X33409523Y-67952380D02*
X33409523Y-66952380D01*
X33838095Y-67047619D02*
X33885714Y-67000000D01*
X33980952Y-66952380D01*
X34219047Y-66952380D01*
X34314285Y-67000000D01*
X34361904Y-67047619D01*
X34409523Y-67142857D01*
X34409523Y-67238095D01*
X34361904Y-67380952D01*
X33790476Y-67952380D01*
X34409523Y-67952380D01*
%TO.C,C11*%
X87707142Y-34107142D02*
X87659523Y-34154761D01*
X87516666Y-34202380D01*
X87421428Y-34202380D01*
X87278571Y-34154761D01*
X87183333Y-34059523D01*
X87135714Y-33964285D01*
X87088095Y-33773809D01*
X87088095Y-33630952D01*
X87135714Y-33440476D01*
X87183333Y-33345238D01*
X87278571Y-33250000D01*
X87421428Y-33202380D01*
X87516666Y-33202380D01*
X87659523Y-33250000D01*
X87707142Y-33297619D01*
X88659523Y-34202380D02*
X88088095Y-34202380D01*
X88373809Y-34202380D02*
X88373809Y-33202380D01*
X88278571Y-33345238D01*
X88183333Y-33440476D01*
X88088095Y-33488095D01*
X89611904Y-34202380D02*
X89040476Y-34202380D01*
X89326190Y-34202380D02*
X89326190Y-33202380D01*
X89230952Y-33345238D01*
X89135714Y-33440476D01*
X89040476Y-33488095D01*
%TO.C,R4*%
X38583333Y-30702380D02*
X38250000Y-30226190D01*
X38011904Y-30702380D02*
X38011904Y-29702380D01*
X38392857Y-29702380D01*
X38488095Y-29750000D01*
X38535714Y-29797619D01*
X38583333Y-29892857D01*
X38583333Y-30035714D01*
X38535714Y-30130952D01*
X38488095Y-30178571D01*
X38392857Y-30226190D01*
X38011904Y-30226190D01*
X39440476Y-30035714D02*
X39440476Y-30702380D01*
X39202380Y-29654761D02*
X38964285Y-30369047D01*
X39583333Y-30369047D01*
%TO.C,U6*%
X84988095Y-33339880D02*
X84988095Y-34149404D01*
X85035714Y-34244642D01*
X85083333Y-34292261D01*
X85178571Y-34339880D01*
X85369047Y-34339880D01*
X85464285Y-34292261D01*
X85511904Y-34244642D01*
X85559523Y-34149404D01*
X85559523Y-33339880D01*
X86464285Y-33339880D02*
X86273809Y-33339880D01*
X86178571Y-33387500D01*
X86130952Y-33435119D01*
X86035714Y-33577976D01*
X85988095Y-33768452D01*
X85988095Y-34149404D01*
X86035714Y-34244642D01*
X86083333Y-34292261D01*
X86178571Y-34339880D01*
X86369047Y-34339880D01*
X86464285Y-34292261D01*
X86511904Y-34244642D01*
X86559523Y-34149404D01*
X86559523Y-33911309D01*
X86511904Y-33816071D01*
X86464285Y-33768452D01*
X86369047Y-33720833D01*
X86178571Y-33720833D01*
X86083333Y-33768452D01*
X86035714Y-33816071D01*
X85988095Y-33911309D01*
%TO.C,H1*%
X37838095Y-26702380D02*
X37838095Y-25702380D01*
X37838095Y-26178571D02*
X38409523Y-26178571D01*
X38409523Y-26702380D02*
X38409523Y-25702380D01*
X39409523Y-26702380D02*
X38838095Y-26702380D01*
X39123809Y-26702380D02*
X39123809Y-25702380D01*
X39028571Y-25845238D01*
X38933333Y-25940476D01*
X38838095Y-25988095D01*
%TO.C,U3*%
X76238095Y-50702380D02*
X76238095Y-51511904D01*
X76285714Y-51607142D01*
X76333333Y-51654761D01*
X76428571Y-51702380D01*
X76619047Y-51702380D01*
X76714285Y-51654761D01*
X76761904Y-51607142D01*
X76809523Y-51511904D01*
X76809523Y-50702380D01*
X77190476Y-50702380D02*
X77809523Y-50702380D01*
X77476190Y-51083333D01*
X77619047Y-51083333D01*
X77714285Y-51130952D01*
X77761904Y-51178571D01*
X77809523Y-51273809D01*
X77809523Y-51511904D01*
X77761904Y-51607142D01*
X77714285Y-51654761D01*
X77619047Y-51702380D01*
X77333333Y-51702380D01*
X77238095Y-51654761D01*
X77190476Y-51607142D01*
%TO.C,U2*%
X74338095Y-61452380D02*
X74338095Y-62261904D01*
X74385714Y-62357142D01*
X74433333Y-62404761D01*
X74528571Y-62452380D01*
X74719047Y-62452380D01*
X74814285Y-62404761D01*
X74861904Y-62357142D01*
X74909523Y-62261904D01*
X74909523Y-61452380D01*
X75338095Y-61547619D02*
X75385714Y-61500000D01*
X75480952Y-61452380D01*
X75719047Y-61452380D01*
X75814285Y-61500000D01*
X75861904Y-61547619D01*
X75909523Y-61642857D01*
X75909523Y-61738095D01*
X75861904Y-61880952D01*
X75290476Y-62452380D01*
X75909523Y-62452380D01*
%TO.C,R2*%
X40433333Y-73202380D02*
X40100000Y-72726190D01*
X39861904Y-73202380D02*
X39861904Y-72202380D01*
X40242857Y-72202380D01*
X40338095Y-72250000D01*
X40385714Y-72297619D01*
X40433333Y-72392857D01*
X40433333Y-72535714D01*
X40385714Y-72630952D01*
X40338095Y-72678571D01*
X40242857Y-72726190D01*
X39861904Y-72726190D01*
X40814285Y-72297619D02*
X40861904Y-72250000D01*
X40957142Y-72202380D01*
X41195238Y-72202380D01*
X41290476Y-72250000D01*
X41338095Y-72297619D01*
X41385714Y-72392857D01*
X41385714Y-72488095D01*
X41338095Y-72630952D01*
X40766666Y-73202380D01*
X41385714Y-73202380D01*
%TO.C,L1*%
X74183333Y-35202380D02*
X73707142Y-35202380D01*
X73707142Y-34202380D01*
X75040476Y-35202380D02*
X74469047Y-35202380D01*
X74754761Y-35202380D02*
X74754761Y-34202380D01*
X74659523Y-34345238D01*
X74564285Y-34440476D01*
X74469047Y-34488095D01*
%TO.C,Q1*%
X101504761Y-39797619D02*
X101409523Y-39750000D01*
X101314285Y-39654761D01*
X101171428Y-39511904D01*
X101076190Y-39464285D01*
X100980952Y-39464285D01*
X101028571Y-39702380D02*
X100933333Y-39654761D01*
X100838095Y-39559523D01*
X100790476Y-39369047D01*
X100790476Y-39035714D01*
X100838095Y-38845238D01*
X100933333Y-38750000D01*
X101028571Y-38702380D01*
X101219047Y-38702380D01*
X101314285Y-38750000D01*
X101409523Y-38845238D01*
X101457142Y-39035714D01*
X101457142Y-39369047D01*
X101409523Y-39559523D01*
X101314285Y-39654761D01*
X101219047Y-39702380D01*
X101028571Y-39702380D01*
X102409523Y-39702380D02*
X101838095Y-39702380D01*
X102123809Y-39702380D02*
X102123809Y-38702380D01*
X102028571Y-38845238D01*
X101933333Y-38940476D01*
X101838095Y-38988095D01*
%TO.C,D4*%
X50361904Y-28702380D02*
X50361904Y-27702380D01*
X50600000Y-27702380D01*
X50742857Y-27750000D01*
X50838095Y-27845238D01*
X50885714Y-27940476D01*
X50933333Y-28130952D01*
X50933333Y-28273809D01*
X50885714Y-28464285D01*
X50838095Y-28559523D01*
X50742857Y-28654761D01*
X50600000Y-28702380D01*
X50361904Y-28702380D01*
X51790476Y-28035714D02*
X51790476Y-28702380D01*
X51552380Y-27654761D02*
X51314285Y-28369047D01*
X51933333Y-28369047D01*
%TO.C,D2*%
X31361904Y-64802380D02*
X31361904Y-63802380D01*
X31600000Y-63802380D01*
X31742857Y-63850000D01*
X31838095Y-63945238D01*
X31885714Y-64040476D01*
X31933333Y-64230952D01*
X31933333Y-64373809D01*
X31885714Y-64564285D01*
X31838095Y-64659523D01*
X31742857Y-64754761D01*
X31600000Y-64802380D01*
X31361904Y-64802380D01*
X32314285Y-63897619D02*
X32361904Y-63850000D01*
X32457142Y-63802380D01*
X32695238Y-63802380D01*
X32790476Y-63850000D01*
X32838095Y-63897619D01*
X32885714Y-63992857D01*
X32885714Y-64088095D01*
X32838095Y-64230952D01*
X32266666Y-64802380D01*
X32885714Y-64802380D01*
%TO.C,Q2*%
X101404761Y-33797619D02*
X101309523Y-33750000D01*
X101214285Y-33654761D01*
X101071428Y-33511904D01*
X100976190Y-33464285D01*
X100880952Y-33464285D01*
X100928571Y-33702380D02*
X100833333Y-33654761D01*
X100738095Y-33559523D01*
X100690476Y-33369047D01*
X100690476Y-33035714D01*
X100738095Y-32845238D01*
X100833333Y-32750000D01*
X100928571Y-32702380D01*
X101119047Y-32702380D01*
X101214285Y-32750000D01*
X101309523Y-32845238D01*
X101357142Y-33035714D01*
X101357142Y-33369047D01*
X101309523Y-33559523D01*
X101214285Y-33654761D01*
X101119047Y-33702380D01*
X100928571Y-33702380D01*
X101738095Y-32797619D02*
X101785714Y-32750000D01*
X101880952Y-32702380D01*
X102119047Y-32702380D01*
X102214285Y-32750000D01*
X102261904Y-32797619D01*
X102309523Y-32892857D01*
X102309523Y-32988095D01*
X102261904Y-33130952D01*
X101690476Y-33702380D01*
X102309523Y-33702380D01*
%TO.C,PS1*%
X46535714Y-30452380D02*
X46535714Y-29452380D01*
X46916666Y-29452380D01*
X47011904Y-29500000D01*
X47059523Y-29547619D01*
X47107142Y-29642857D01*
X47107142Y-29785714D01*
X47059523Y-29880952D01*
X47011904Y-29928571D01*
X46916666Y-29976190D01*
X46535714Y-29976190D01*
X47488095Y-30404761D02*
X47630952Y-30452380D01*
X47869047Y-30452380D01*
X47964285Y-30404761D01*
X48011904Y-30357142D01*
X48059523Y-30261904D01*
X48059523Y-30166666D01*
X48011904Y-30071428D01*
X47964285Y-30023809D01*
X47869047Y-29976190D01*
X47678571Y-29928571D01*
X47583333Y-29880952D01*
X47535714Y-29833333D01*
X47488095Y-29738095D01*
X47488095Y-29642857D01*
X47535714Y-29547619D01*
X47583333Y-29500000D01*
X47678571Y-29452380D01*
X47916666Y-29452380D01*
X48059523Y-29500000D01*
X49011904Y-30452380D02*
X48440476Y-30452380D01*
X48726190Y-30452380D02*
X48726190Y-29452380D01*
X48630952Y-29595238D01*
X48535714Y-29690476D01*
X48440476Y-29738095D01*
%TO.C,R6*%
X75433333Y-57952380D02*
X75100000Y-57476190D01*
X74861904Y-57952380D02*
X74861904Y-56952380D01*
X75242857Y-56952380D01*
X75338095Y-57000000D01*
X75385714Y-57047619D01*
X75433333Y-57142857D01*
X75433333Y-57285714D01*
X75385714Y-57380952D01*
X75338095Y-57428571D01*
X75242857Y-57476190D01*
X74861904Y-57476190D01*
X76290476Y-56952380D02*
X76100000Y-56952380D01*
X76004761Y-57000000D01*
X75957142Y-57047619D01*
X75861904Y-57190476D01*
X75814285Y-57380952D01*
X75814285Y-57761904D01*
X75861904Y-57857142D01*
X75909523Y-57904761D01*
X76004761Y-57952380D01*
X76195238Y-57952380D01*
X76290476Y-57904761D01*
X76338095Y-57857142D01*
X76385714Y-57761904D01*
X76385714Y-57523809D01*
X76338095Y-57428571D01*
X76290476Y-57380952D01*
X76195238Y-57333333D01*
X76004761Y-57333333D01*
X75909523Y-57380952D01*
X75861904Y-57428571D01*
X75814285Y-57523809D01*
%TO.C,R18*%
X85707142Y-39702380D02*
X85373809Y-39226190D01*
X85135714Y-39702380D02*
X85135714Y-38702380D01*
X85516666Y-38702380D01*
X85611904Y-38750000D01*
X85659523Y-38797619D01*
X85707142Y-38892857D01*
X85707142Y-39035714D01*
X85659523Y-39130952D01*
X85611904Y-39178571D01*
X85516666Y-39226190D01*
X85135714Y-39226190D01*
X86659523Y-39702380D02*
X86088095Y-39702380D01*
X86373809Y-39702380D02*
X86373809Y-38702380D01*
X86278571Y-38845238D01*
X86183333Y-38940476D01*
X86088095Y-38988095D01*
X87230952Y-39130952D02*
X87135714Y-39083333D01*
X87088095Y-39035714D01*
X87040476Y-38940476D01*
X87040476Y-38892857D01*
X87088095Y-38797619D01*
X87135714Y-38750000D01*
X87230952Y-38702380D01*
X87421428Y-38702380D01*
X87516666Y-38750000D01*
X87564285Y-38797619D01*
X87611904Y-38892857D01*
X87611904Y-38940476D01*
X87564285Y-39035714D01*
X87516666Y-39083333D01*
X87421428Y-39130952D01*
X87230952Y-39130952D01*
X87135714Y-39178571D01*
X87088095Y-39226190D01*
X87040476Y-39321428D01*
X87040476Y-39511904D01*
X87088095Y-39607142D01*
X87135714Y-39654761D01*
X87230952Y-39702380D01*
X87421428Y-39702380D01*
X87516666Y-39654761D01*
X87564285Y-39607142D01*
X87611904Y-39511904D01*
X87611904Y-39321428D01*
X87564285Y-39226190D01*
X87516666Y-39178571D01*
X87421428Y-39130952D01*
%TO.C,C13*%
X76457142Y-34607142D02*
X76409523Y-34654761D01*
X76266666Y-34702380D01*
X76171428Y-34702380D01*
X76028571Y-34654761D01*
X75933333Y-34559523D01*
X75885714Y-34464285D01*
X75838095Y-34273809D01*
X75838095Y-34130952D01*
X75885714Y-33940476D01*
X75933333Y-33845238D01*
X76028571Y-33750000D01*
X76171428Y-33702380D01*
X76266666Y-33702380D01*
X76409523Y-33750000D01*
X76457142Y-33797619D01*
X77409523Y-34702380D02*
X76838095Y-34702380D01*
X77123809Y-34702380D02*
X77123809Y-33702380D01*
X77028571Y-33845238D01*
X76933333Y-33940476D01*
X76838095Y-33988095D01*
X77742857Y-33702380D02*
X78361904Y-33702380D01*
X78028571Y-34083333D01*
X78171428Y-34083333D01*
X78266666Y-34130952D01*
X78314285Y-34178571D01*
X78361904Y-34273809D01*
X78361904Y-34511904D01*
X78314285Y-34607142D01*
X78266666Y-34654761D01*
X78171428Y-34702380D01*
X77885714Y-34702380D01*
X77790476Y-34654761D01*
X77742857Y-34607142D01*
%TO.C,C10*%
X102207142Y-68142857D02*
X102254761Y-68190476D01*
X102302380Y-68333333D01*
X102302380Y-68428571D01*
X102254761Y-68571428D01*
X102159523Y-68666666D01*
X102064285Y-68714285D01*
X101873809Y-68761904D01*
X101730952Y-68761904D01*
X101540476Y-68714285D01*
X101445238Y-68666666D01*
X101350000Y-68571428D01*
X101302380Y-68428571D01*
X101302380Y-68333333D01*
X101350000Y-68190476D01*
X101397619Y-68142857D01*
X102302380Y-67190476D02*
X102302380Y-67761904D01*
X102302380Y-67476190D02*
X101302380Y-67476190D01*
X101445238Y-67571428D01*
X101540476Y-67666666D01*
X101588095Y-67761904D01*
X101302380Y-66571428D02*
X101302380Y-66476190D01*
X101350000Y-66380952D01*
X101397619Y-66333333D01*
X101492857Y-66285714D01*
X101683333Y-66238095D01*
X101921428Y-66238095D01*
X102111904Y-66285714D01*
X102207142Y-66333333D01*
X102254761Y-66380952D01*
X102302380Y-66476190D01*
X102302380Y-66571428D01*
X102254761Y-66666666D01*
X102207142Y-66714285D01*
X102111904Y-66761904D01*
X101921428Y-66809523D01*
X101683333Y-66809523D01*
X101492857Y-66761904D01*
X101397619Y-66714285D01*
X101350000Y-66666666D01*
X101302380Y-66571428D01*
%TO.C,C8*%
X88583333Y-37357142D02*
X88535714Y-37404761D01*
X88392857Y-37452380D01*
X88297619Y-37452380D01*
X88154761Y-37404761D01*
X88059523Y-37309523D01*
X88011904Y-37214285D01*
X87964285Y-37023809D01*
X87964285Y-36880952D01*
X88011904Y-36690476D01*
X88059523Y-36595238D01*
X88154761Y-36500000D01*
X88297619Y-36452380D01*
X88392857Y-36452380D01*
X88535714Y-36500000D01*
X88583333Y-36547619D01*
X89154761Y-36880952D02*
X89059523Y-36833333D01*
X89011904Y-36785714D01*
X88964285Y-36690476D01*
X88964285Y-36642857D01*
X89011904Y-36547619D01*
X89059523Y-36500000D01*
X89154761Y-36452380D01*
X89345238Y-36452380D01*
X89440476Y-36500000D01*
X89488095Y-36547619D01*
X89535714Y-36642857D01*
X89535714Y-36690476D01*
X89488095Y-36785714D01*
X89440476Y-36833333D01*
X89345238Y-36880952D01*
X89154761Y-36880952D01*
X89059523Y-36928571D01*
X89011904Y-36976190D01*
X88964285Y-37071428D01*
X88964285Y-37261904D01*
X89011904Y-37357142D01*
X89059523Y-37404761D01*
X89154761Y-37452380D01*
X89345238Y-37452380D01*
X89440476Y-37404761D01*
X89488095Y-37357142D01*
X89535714Y-37261904D01*
X89535714Y-37071428D01*
X89488095Y-36976190D01*
X89440476Y-36928571D01*
X89345238Y-36880952D01*
%TO.C,H4*%
X107588095Y-73202380D02*
X107588095Y-72202380D01*
X107588095Y-72678571D02*
X108159523Y-72678571D01*
X108159523Y-73202380D02*
X108159523Y-72202380D01*
X109064285Y-72535714D02*
X109064285Y-73202380D01*
X108826190Y-72154761D02*
X108588095Y-72869047D01*
X109207142Y-72869047D01*
%TO.C,R8*%
X99433333Y-38202380D02*
X99100000Y-37726190D01*
X98861904Y-38202380D02*
X98861904Y-37202380D01*
X99242857Y-37202380D01*
X99338095Y-37250000D01*
X99385714Y-37297619D01*
X99433333Y-37392857D01*
X99433333Y-37535714D01*
X99385714Y-37630952D01*
X99338095Y-37678571D01*
X99242857Y-37726190D01*
X98861904Y-37726190D01*
X100004761Y-37630952D02*
X99909523Y-37583333D01*
X99861904Y-37535714D01*
X99814285Y-37440476D01*
X99814285Y-37392857D01*
X99861904Y-37297619D01*
X99909523Y-37250000D01*
X100004761Y-37202380D01*
X100195238Y-37202380D01*
X100290476Y-37250000D01*
X100338095Y-37297619D01*
X100385714Y-37392857D01*
X100385714Y-37440476D01*
X100338095Y-37535714D01*
X100290476Y-37583333D01*
X100195238Y-37630952D01*
X100004761Y-37630952D01*
X99909523Y-37678571D01*
X99861904Y-37726190D01*
X99814285Y-37821428D01*
X99814285Y-38011904D01*
X99861904Y-38107142D01*
X99909523Y-38154761D01*
X100004761Y-38202380D01*
X100195238Y-38202380D01*
X100290476Y-38154761D01*
X100338095Y-38107142D01*
X100385714Y-38011904D01*
X100385714Y-37821428D01*
X100338095Y-37726190D01*
X100290476Y-37678571D01*
X100195238Y-37630952D01*
%TO.C,C17*%
X87457142Y-29357142D02*
X87409523Y-29404761D01*
X87266666Y-29452380D01*
X87171428Y-29452380D01*
X87028571Y-29404761D01*
X86933333Y-29309523D01*
X86885714Y-29214285D01*
X86838095Y-29023809D01*
X86838095Y-28880952D01*
X86885714Y-28690476D01*
X86933333Y-28595238D01*
X87028571Y-28500000D01*
X87171428Y-28452380D01*
X87266666Y-28452380D01*
X87409523Y-28500000D01*
X87457142Y-28547619D01*
X88409523Y-29452380D02*
X87838095Y-29452380D01*
X88123809Y-29452380D02*
X88123809Y-28452380D01*
X88028571Y-28595238D01*
X87933333Y-28690476D01*
X87838095Y-28738095D01*
X88742857Y-28452380D02*
X89409523Y-28452380D01*
X88980952Y-29452380D01*
%TO.C,C1*%
X98957142Y-69416666D02*
X99004761Y-69464285D01*
X99052380Y-69607142D01*
X99052380Y-69702380D01*
X99004761Y-69845238D01*
X98909523Y-69940476D01*
X98814285Y-69988095D01*
X98623809Y-70035714D01*
X98480952Y-70035714D01*
X98290476Y-69988095D01*
X98195238Y-69940476D01*
X98100000Y-69845238D01*
X98052380Y-69702380D01*
X98052380Y-69607142D01*
X98100000Y-69464285D01*
X98147619Y-69416666D01*
X99052380Y-68464285D02*
X99052380Y-69035714D01*
X99052380Y-68750000D02*
X98052380Y-68750000D01*
X98195238Y-68845238D01*
X98290476Y-68940476D01*
X98338095Y-69035714D01*
%TO.C,R12*%
X92107142Y-40952380D02*
X91773809Y-40476190D01*
X91535714Y-40952380D02*
X91535714Y-39952380D01*
X91916666Y-39952380D01*
X92011904Y-40000000D01*
X92059523Y-40047619D01*
X92107142Y-40142857D01*
X92107142Y-40285714D01*
X92059523Y-40380952D01*
X92011904Y-40428571D01*
X91916666Y-40476190D01*
X91535714Y-40476190D01*
X93059523Y-40952380D02*
X92488095Y-40952380D01*
X92773809Y-40952380D02*
X92773809Y-39952380D01*
X92678571Y-40095238D01*
X92583333Y-40190476D01*
X92488095Y-40238095D01*
X93440476Y-40047619D02*
X93488095Y-40000000D01*
X93583333Y-39952380D01*
X93821428Y-39952380D01*
X93916666Y-40000000D01*
X93964285Y-40047619D01*
X94011904Y-40142857D01*
X94011904Y-40238095D01*
X93964285Y-40380952D01*
X93392857Y-40952380D01*
X94011904Y-40952380D01*
D11*
%TO.C,J1*%
X23483333Y-57061904D02*
X23483333Y-57633333D01*
X23445238Y-57747619D01*
X23369047Y-57823809D01*
X23254761Y-57861904D01*
X23178571Y-57861904D01*
X24283333Y-57861904D02*
X23826190Y-57861904D01*
X24054761Y-57861904D02*
X24054761Y-57061904D01*
X23978571Y-57176190D01*
X23902380Y-57252380D01*
X23826190Y-57290476D01*
D10*
%TO.C,R10*%
X83107142Y-33089880D02*
X82773809Y-32613690D01*
X82535714Y-33089880D02*
X82535714Y-32089880D01*
X82916666Y-32089880D01*
X83011904Y-32137500D01*
X83059523Y-32185119D01*
X83107142Y-32280357D01*
X83107142Y-32423214D01*
X83059523Y-32518452D01*
X83011904Y-32566071D01*
X82916666Y-32613690D01*
X82535714Y-32613690D01*
X84059523Y-33089880D02*
X83488095Y-33089880D01*
X83773809Y-33089880D02*
X83773809Y-32089880D01*
X83678571Y-32232738D01*
X83583333Y-32327976D01*
X83488095Y-32375595D01*
X84678571Y-32089880D02*
X84773809Y-32089880D01*
X84869047Y-32137500D01*
X84916666Y-32185119D01*
X84964285Y-32280357D01*
X85011904Y-32470833D01*
X85011904Y-32708928D01*
X84964285Y-32899404D01*
X84916666Y-32994642D01*
X84869047Y-33042261D01*
X84773809Y-33089880D01*
X84678571Y-33089880D01*
X84583333Y-33042261D01*
X84535714Y-32994642D01*
X84488095Y-32899404D01*
X84440476Y-32708928D01*
X84440476Y-32470833D01*
X84488095Y-32280357D01*
X84535714Y-32185119D01*
X84583333Y-32137500D01*
X84678571Y-32089880D01*
%TO.C,C18*%
X72857142Y-45107142D02*
X72809523Y-45154761D01*
X72666666Y-45202380D01*
X72571428Y-45202380D01*
X72428571Y-45154761D01*
X72333333Y-45059523D01*
X72285714Y-44964285D01*
X72238095Y-44773809D01*
X72238095Y-44630952D01*
X72285714Y-44440476D01*
X72333333Y-44345238D01*
X72428571Y-44250000D01*
X72571428Y-44202380D01*
X72666666Y-44202380D01*
X72809523Y-44250000D01*
X72857142Y-44297619D01*
X73809523Y-45202380D02*
X73238095Y-45202380D01*
X73523809Y-45202380D02*
X73523809Y-44202380D01*
X73428571Y-44345238D01*
X73333333Y-44440476D01*
X73238095Y-44488095D01*
X74380952Y-44630952D02*
X74285714Y-44583333D01*
X74238095Y-44535714D01*
X74190476Y-44440476D01*
X74190476Y-44392857D01*
X74238095Y-44297619D01*
X74285714Y-44250000D01*
X74380952Y-44202380D01*
X74571428Y-44202380D01*
X74666666Y-44250000D01*
X74714285Y-44297619D01*
X74761904Y-44392857D01*
X74761904Y-44440476D01*
X74714285Y-44535714D01*
X74666666Y-44583333D01*
X74571428Y-44630952D01*
X74380952Y-44630952D01*
X74285714Y-44678571D01*
X74238095Y-44726190D01*
X74190476Y-44821428D01*
X74190476Y-45011904D01*
X74238095Y-45107142D01*
X74285714Y-45154761D01*
X74380952Y-45202380D01*
X74571428Y-45202380D01*
X74666666Y-45154761D01*
X74714285Y-45107142D01*
X74761904Y-45011904D01*
X74761904Y-44821428D01*
X74714285Y-44726190D01*
X74666666Y-44678571D01*
X74571428Y-44630952D01*
%TO.C,C14*%
X83207142Y-30994642D02*
X83159523Y-31042261D01*
X83016666Y-31089880D01*
X82921428Y-31089880D01*
X82778571Y-31042261D01*
X82683333Y-30947023D01*
X82635714Y-30851785D01*
X82588095Y-30661309D01*
X82588095Y-30518452D01*
X82635714Y-30327976D01*
X82683333Y-30232738D01*
X82778571Y-30137500D01*
X82921428Y-30089880D01*
X83016666Y-30089880D01*
X83159523Y-30137500D01*
X83207142Y-30185119D01*
X84159523Y-31089880D02*
X83588095Y-31089880D01*
X83873809Y-31089880D02*
X83873809Y-30089880D01*
X83778571Y-30232738D01*
X83683333Y-30327976D01*
X83588095Y-30375595D01*
X85016666Y-30423214D02*
X85016666Y-31089880D01*
X84778571Y-30042261D02*
X84540476Y-30756547D01*
X85159523Y-30756547D01*
%TO.C,D1*%
X65261904Y-27952380D02*
X65261904Y-26952380D01*
X65500000Y-26952380D01*
X65642857Y-27000000D01*
X65738095Y-27095238D01*
X65785714Y-27190476D01*
X65833333Y-27380952D01*
X65833333Y-27523809D01*
X65785714Y-27714285D01*
X65738095Y-27809523D01*
X65642857Y-27904761D01*
X65500000Y-27952380D01*
X65261904Y-27952380D01*
X66785714Y-27952380D02*
X66214285Y-27952380D01*
X66500000Y-27952380D02*
X66500000Y-26952380D01*
X66404761Y-27095238D01*
X66309523Y-27190476D01*
X66214285Y-27238095D01*
%TO.C,J7*%
X121916666Y-56202380D02*
X121916666Y-56916666D01*
X121869047Y-57059523D01*
X121773809Y-57154761D01*
X121630952Y-57202380D01*
X121535714Y-57202380D01*
X122297619Y-56202380D02*
X122964285Y-56202380D01*
X122535714Y-57202380D01*
%TO.C,J2*%
X98166666Y-47702380D02*
X98166666Y-48416666D01*
X98119047Y-48559523D01*
X98023809Y-48654761D01*
X97880952Y-48702380D01*
X97785714Y-48702380D01*
X98595238Y-47797619D02*
X98642857Y-47750000D01*
X98738095Y-47702380D01*
X98976190Y-47702380D01*
X99071428Y-47750000D01*
X99119047Y-47797619D01*
X99166666Y-47892857D01*
X99166666Y-47988095D01*
X99119047Y-48130952D01*
X98547619Y-48702380D01*
X99166666Y-48702380D01*
%TO.C,R16*%
X101357142Y-58952380D02*
X101023809Y-58476190D01*
X100785714Y-58952380D02*
X100785714Y-57952380D01*
X101166666Y-57952380D01*
X101261904Y-58000000D01*
X101309523Y-58047619D01*
X101357142Y-58142857D01*
X101357142Y-58285714D01*
X101309523Y-58380952D01*
X101261904Y-58428571D01*
X101166666Y-58476190D01*
X100785714Y-58476190D01*
X102309523Y-58952380D02*
X101738095Y-58952380D01*
X102023809Y-58952380D02*
X102023809Y-57952380D01*
X101928571Y-58095238D01*
X101833333Y-58190476D01*
X101738095Y-58238095D01*
X103166666Y-57952380D02*
X102976190Y-57952380D01*
X102880952Y-58000000D01*
X102833333Y-58047619D01*
X102738095Y-58190476D01*
X102690476Y-58380952D01*
X102690476Y-58761904D01*
X102738095Y-58857142D01*
X102785714Y-58904761D01*
X102880952Y-58952380D01*
X103071428Y-58952380D01*
X103166666Y-58904761D01*
X103214285Y-58857142D01*
X103261904Y-58761904D01*
X103261904Y-58523809D01*
X103214285Y-58428571D01*
X103166666Y-58380952D01*
X103071428Y-58333333D01*
X102880952Y-58333333D01*
X102785714Y-58380952D01*
X102738095Y-58428571D01*
X102690476Y-58523809D01*
%TO.C,C6*%
X37083333Y-68107142D02*
X37035714Y-68154761D01*
X36892857Y-68202380D01*
X36797619Y-68202380D01*
X36654761Y-68154761D01*
X36559523Y-68059523D01*
X36511904Y-67964285D01*
X36464285Y-67773809D01*
X36464285Y-67630952D01*
X36511904Y-67440476D01*
X36559523Y-67345238D01*
X36654761Y-67250000D01*
X36797619Y-67202380D01*
X36892857Y-67202380D01*
X37035714Y-67250000D01*
X37083333Y-67297619D01*
X37940476Y-67202380D02*
X37750000Y-67202380D01*
X37654761Y-67250000D01*
X37607142Y-67297619D01*
X37511904Y-67440476D01*
X37464285Y-67630952D01*
X37464285Y-68011904D01*
X37511904Y-68107142D01*
X37559523Y-68154761D01*
X37654761Y-68202380D01*
X37845238Y-68202380D01*
X37940476Y-68154761D01*
X37988095Y-68107142D01*
X38035714Y-68011904D01*
X38035714Y-67773809D01*
X37988095Y-67678571D01*
X37940476Y-67630952D01*
X37845238Y-67583333D01*
X37654761Y-67583333D01*
X37559523Y-67630952D01*
X37511904Y-67678571D01*
X37464285Y-67773809D01*
%TO.C,R11*%
X83207142Y-28089880D02*
X82873809Y-27613690D01*
X82635714Y-28089880D02*
X82635714Y-27089880D01*
X83016666Y-27089880D01*
X83111904Y-27137500D01*
X83159523Y-27185119D01*
X83207142Y-27280357D01*
X83207142Y-27423214D01*
X83159523Y-27518452D01*
X83111904Y-27566071D01*
X83016666Y-27613690D01*
X82635714Y-27613690D01*
X84159523Y-28089880D02*
X83588095Y-28089880D01*
X83873809Y-28089880D02*
X83873809Y-27089880D01*
X83778571Y-27232738D01*
X83683333Y-27327976D01*
X83588095Y-27375595D01*
X85111904Y-28089880D02*
X84540476Y-28089880D01*
X84826190Y-28089880D02*
X84826190Y-27089880D01*
X84730952Y-27232738D01*
X84635714Y-27327976D01*
X84540476Y-27375595D01*
%TO.C,R9*%
X72833333Y-33339880D02*
X72500000Y-32863690D01*
X72261904Y-33339880D02*
X72261904Y-32339880D01*
X72642857Y-32339880D01*
X72738095Y-32387500D01*
X72785714Y-32435119D01*
X72833333Y-32530357D01*
X72833333Y-32673214D01*
X72785714Y-32768452D01*
X72738095Y-32816071D01*
X72642857Y-32863690D01*
X72261904Y-32863690D01*
X73309523Y-33339880D02*
X73500000Y-33339880D01*
X73595238Y-33292261D01*
X73642857Y-33244642D01*
X73738095Y-33101785D01*
X73785714Y-32911309D01*
X73785714Y-32530357D01*
X73738095Y-32435119D01*
X73690476Y-32387500D01*
X73595238Y-32339880D01*
X73404761Y-32339880D01*
X73309523Y-32387500D01*
X73261904Y-32435119D01*
X73214285Y-32530357D01*
X73214285Y-32768452D01*
X73261904Y-32863690D01*
X73309523Y-32911309D01*
X73404761Y-32958928D01*
X73595238Y-32958928D01*
X73690476Y-32911309D01*
X73738095Y-32863690D01*
X73785714Y-32768452D01*
%TO.C,R13*%
X85707142Y-35689638D02*
X85373809Y-35213448D01*
X85135714Y-35689638D02*
X85135714Y-34689638D01*
X85516666Y-34689638D01*
X85611904Y-34737258D01*
X85659523Y-34784877D01*
X85707142Y-34880115D01*
X85707142Y-35022972D01*
X85659523Y-35118210D01*
X85611904Y-35165829D01*
X85516666Y-35213448D01*
X85135714Y-35213448D01*
X86659523Y-35689638D02*
X86088095Y-35689638D01*
X86373809Y-35689638D02*
X86373809Y-34689638D01*
X86278571Y-34832496D01*
X86183333Y-34927734D01*
X86088095Y-34975353D01*
X86992857Y-34689638D02*
X87611904Y-34689638D01*
X87278571Y-35070591D01*
X87421428Y-35070591D01*
X87516666Y-35118210D01*
X87564285Y-35165829D01*
X87611904Y-35261067D01*
X87611904Y-35499162D01*
X87564285Y-35594400D01*
X87516666Y-35642019D01*
X87421428Y-35689638D01*
X87135714Y-35689638D01*
X87040476Y-35642019D01*
X86992857Y-35594400D01*
%TO.C,C12*%
X81207142Y-25744642D02*
X81159523Y-25792261D01*
X81016666Y-25839880D01*
X80921428Y-25839880D01*
X80778571Y-25792261D01*
X80683333Y-25697023D01*
X80635714Y-25601785D01*
X80588095Y-25411309D01*
X80588095Y-25268452D01*
X80635714Y-25077976D01*
X80683333Y-24982738D01*
X80778571Y-24887500D01*
X80921428Y-24839880D01*
X81016666Y-24839880D01*
X81159523Y-24887500D01*
X81207142Y-24935119D01*
X82159523Y-25839880D02*
X81588095Y-25839880D01*
X81873809Y-25839880D02*
X81873809Y-24839880D01*
X81778571Y-24982738D01*
X81683333Y-25077976D01*
X81588095Y-25125595D01*
X82540476Y-24935119D02*
X82588095Y-24887500D01*
X82683333Y-24839880D01*
X82921428Y-24839880D01*
X83016666Y-24887500D01*
X83064285Y-24935119D01*
X83111904Y-25030357D01*
X83111904Y-25125595D01*
X83064285Y-25268452D01*
X82492857Y-25839880D01*
X83111904Y-25839880D01*
%TO.C,J5*%
X122166666Y-40952380D02*
X122166666Y-41666666D01*
X122119047Y-41809523D01*
X122023809Y-41904761D01*
X121880952Y-41952380D01*
X121785714Y-41952380D01*
X123119047Y-40952380D02*
X122642857Y-40952380D01*
X122595238Y-41428571D01*
X122642857Y-41380952D01*
X122738095Y-41333333D01*
X122976190Y-41333333D01*
X123071428Y-41380952D01*
X123119047Y-41428571D01*
X123166666Y-41523809D01*
X123166666Y-41761904D01*
X123119047Y-41857142D01*
X123071428Y-41904761D01*
X122976190Y-41952380D01*
X122738095Y-41952380D01*
X122642857Y-41904761D01*
X122595238Y-41857142D01*
X109707142Y-53321428D02*
X109707142Y-52178571D01*
X110278571Y-52750000D02*
X109135714Y-52750000D01*
X109707142Y-42321428D02*
X109707142Y-41178571D01*
%TO.C,U7*%
X95838095Y-32702380D02*
X95838095Y-33511904D01*
X95885714Y-33607142D01*
X95933333Y-33654761D01*
X96028571Y-33702380D01*
X96219047Y-33702380D01*
X96314285Y-33654761D01*
X96361904Y-33607142D01*
X96409523Y-33511904D01*
X96409523Y-32702380D01*
X96790476Y-32702380D02*
X97457142Y-32702380D01*
X97028571Y-33702380D01*
%TO.C,C3*%
X74683333Y-68537142D02*
X74635714Y-68584761D01*
X74492857Y-68632380D01*
X74397619Y-68632380D01*
X74254761Y-68584761D01*
X74159523Y-68489523D01*
X74111904Y-68394285D01*
X74064285Y-68203809D01*
X74064285Y-68060952D01*
X74111904Y-67870476D01*
X74159523Y-67775238D01*
X74254761Y-67680000D01*
X74397619Y-67632380D01*
X74492857Y-67632380D01*
X74635714Y-67680000D01*
X74683333Y-67727619D01*
X75016666Y-67632380D02*
X75635714Y-67632380D01*
X75302380Y-68013333D01*
X75445238Y-68013333D01*
X75540476Y-68060952D01*
X75588095Y-68108571D01*
X75635714Y-68203809D01*
X75635714Y-68441904D01*
X75588095Y-68537142D01*
X75540476Y-68584761D01*
X75445238Y-68632380D01*
X75159523Y-68632380D01*
X75064285Y-68584761D01*
X75016666Y-68537142D01*
%TO.C,Q3*%
X105254761Y-58897619D02*
X105159523Y-58850000D01*
X105064285Y-58754761D01*
X104921428Y-58611904D01*
X104826190Y-58564285D01*
X104730952Y-58564285D01*
X104778571Y-58802380D02*
X104683333Y-58754761D01*
X104588095Y-58659523D01*
X104540476Y-58469047D01*
X104540476Y-58135714D01*
X104588095Y-57945238D01*
X104683333Y-57850000D01*
X104778571Y-57802380D01*
X104969047Y-57802380D01*
X105064285Y-57850000D01*
X105159523Y-57945238D01*
X105207142Y-58135714D01*
X105207142Y-58469047D01*
X105159523Y-58659523D01*
X105064285Y-58754761D01*
X104969047Y-58802380D01*
X104778571Y-58802380D01*
X105540476Y-57802380D02*
X106159523Y-57802380D01*
X105826190Y-58183333D01*
X105969047Y-58183333D01*
X106064285Y-58230952D01*
X106111904Y-58278571D01*
X106159523Y-58373809D01*
X106159523Y-58611904D01*
X106111904Y-58707142D01*
X106064285Y-58754761D01*
X105969047Y-58802380D01*
X105683333Y-58802380D01*
X105588095Y-58754761D01*
X105540476Y-58707142D01*
%TO.C,H3*%
X99088095Y-36452380D02*
X99088095Y-35452380D01*
X99088095Y-35928571D02*
X99659523Y-35928571D01*
X99659523Y-36452380D02*
X99659523Y-35452380D01*
X100040476Y-35452380D02*
X100659523Y-35452380D01*
X100326190Y-35833333D01*
X100469047Y-35833333D01*
X100564285Y-35880952D01*
X100611904Y-35928571D01*
X100659523Y-36023809D01*
X100659523Y-36261904D01*
X100611904Y-36357142D01*
X100564285Y-36404761D01*
X100469047Y-36452380D01*
X100183333Y-36452380D01*
X100088095Y-36404761D01*
X100040476Y-36357142D01*
%TO.C,R7*%
X73433333Y-57952380D02*
X73100000Y-57476190D01*
X72861904Y-57952380D02*
X72861904Y-56952380D01*
X73242857Y-56952380D01*
X73338095Y-57000000D01*
X73385714Y-57047619D01*
X73433333Y-57142857D01*
X73433333Y-57285714D01*
X73385714Y-57380952D01*
X73338095Y-57428571D01*
X73242857Y-57476190D01*
X72861904Y-57476190D01*
X73766666Y-56952380D02*
X74433333Y-56952380D01*
X74004761Y-57952380D01*
%TO.C,R14*%
X72857142Y-46452380D02*
X72523809Y-45976190D01*
X72285714Y-46452380D02*
X72285714Y-45452380D01*
X72666666Y-45452380D01*
X72761904Y-45500000D01*
X72809523Y-45547619D01*
X72857142Y-45642857D01*
X72857142Y-45785714D01*
X72809523Y-45880952D01*
X72761904Y-45928571D01*
X72666666Y-45976190D01*
X72285714Y-45976190D01*
X73809523Y-46452380D02*
X73238095Y-46452380D01*
X73523809Y-46452380D02*
X73523809Y-45452380D01*
X73428571Y-45595238D01*
X73333333Y-45690476D01*
X73238095Y-45738095D01*
X74666666Y-45785714D02*
X74666666Y-46452380D01*
X74428571Y-45404761D02*
X74190476Y-46119047D01*
X74809523Y-46119047D01*
%TO.C,U4*%
X93838095Y-35052380D02*
X93838095Y-35861904D01*
X93885714Y-35957142D01*
X93933333Y-36004761D01*
X94028571Y-36052380D01*
X94219047Y-36052380D01*
X94314285Y-36004761D01*
X94361904Y-35957142D01*
X94409523Y-35861904D01*
X94409523Y-35052380D01*
X95314285Y-35385714D02*
X95314285Y-36052380D01*
X95076190Y-35004761D02*
X94838095Y-35719047D01*
X95457142Y-35719047D01*
%TO.C,D3*%
X32261904Y-37202380D02*
X32261904Y-36202380D01*
X32500000Y-36202380D01*
X32642857Y-36250000D01*
X32738095Y-36345238D01*
X32785714Y-36440476D01*
X32833333Y-36630952D01*
X32833333Y-36773809D01*
X32785714Y-36964285D01*
X32738095Y-37059523D01*
X32642857Y-37154761D01*
X32500000Y-37202380D01*
X32261904Y-37202380D01*
X33166666Y-36202380D02*
X33785714Y-36202380D01*
X33452380Y-36583333D01*
X33595238Y-36583333D01*
X33690476Y-36630952D01*
X33738095Y-36678571D01*
X33785714Y-36773809D01*
X33785714Y-37011904D01*
X33738095Y-37107142D01*
X33690476Y-37154761D01*
X33595238Y-37202380D01*
X33309523Y-37202380D01*
X33214285Y-37154761D01*
X33166666Y-37107142D01*
%TO.C,C9*%
X100333333Y-62357142D02*
X100285714Y-62404761D01*
X100142857Y-62452380D01*
X100047619Y-62452380D01*
X99904761Y-62404761D01*
X99809523Y-62309523D01*
X99761904Y-62214285D01*
X99714285Y-62023809D01*
X99714285Y-61880952D01*
X99761904Y-61690476D01*
X99809523Y-61595238D01*
X99904761Y-61500000D01*
X100047619Y-61452380D01*
X100142857Y-61452380D01*
X100285714Y-61500000D01*
X100333333Y-61547619D01*
X100809523Y-62452380D02*
X101000000Y-62452380D01*
X101095238Y-62404761D01*
X101142857Y-62357142D01*
X101238095Y-62214285D01*
X101285714Y-62023809D01*
X101285714Y-61642857D01*
X101238095Y-61547619D01*
X101190476Y-61500000D01*
X101095238Y-61452380D01*
X100904761Y-61452380D01*
X100809523Y-61500000D01*
X100761904Y-61547619D01*
X100714285Y-61642857D01*
X100714285Y-61880952D01*
X100761904Y-61976190D01*
X100809523Y-62023809D01*
X100904761Y-62071428D01*
X101095238Y-62071428D01*
X101190476Y-62023809D01*
X101238095Y-61976190D01*
X101285714Y-61880952D01*
%TO.C,C7*%
X40583333Y-30607142D02*
X40535714Y-30654761D01*
X40392857Y-30702380D01*
X40297619Y-30702380D01*
X40154761Y-30654761D01*
X40059523Y-30559523D01*
X40011904Y-30464285D01*
X39964285Y-30273809D01*
X39964285Y-30130952D01*
X40011904Y-29940476D01*
X40059523Y-29845238D01*
X40154761Y-29750000D01*
X40297619Y-29702380D01*
X40392857Y-29702380D01*
X40535714Y-29750000D01*
X40583333Y-29797619D01*
X40916666Y-29702380D02*
X41583333Y-29702380D01*
X41154761Y-30702380D01*
D12*
%TO.C,C2*%
X100860000Y-66640580D02*
X100860000Y-66359420D01*
X99840000Y-66640580D02*
X99840000Y-66359420D01*
%TO.C,R3*%
X38327500Y-70262742D02*
X38327500Y-70737258D01*
X39372500Y-70262742D02*
X39372500Y-70737258D01*
%TO.C,C15*%
X91010000Y-31609420D02*
X91010000Y-31890580D01*
X89990000Y-31609420D02*
X89990000Y-31890580D01*
%TO.C,R19*%
X107272500Y-64012742D02*
X107272500Y-64487258D01*
X106227500Y-64012742D02*
X106227500Y-64487258D01*
%TO.C,R1*%
X99587258Y-63727500D02*
X99112742Y-63727500D01*
X99587258Y-64772500D02*
X99112742Y-64772500D01*
%TO.C,R15*%
X93590000Y-27022936D02*
X93590000Y-28477064D01*
X95410000Y-27022936D02*
X95410000Y-28477064D01*
%TO.C,J3*%
X23665000Y-66060000D02*
X23665000Y-69940000D01*
X28135000Y-64890000D02*
X28135000Y-65940000D01*
X28135000Y-71110000D02*
X28135000Y-70060000D01*
X28135000Y-65940000D02*
X29125000Y-65940000D01*
X25635000Y-71110000D02*
X28135000Y-71110000D01*
X25635000Y-64890000D02*
X28135000Y-64890000D01*
%TO.C,C5*%
X39811252Y-66610000D02*
X38388748Y-66610000D01*
X39811252Y-63890000D02*
X38388748Y-63890000D01*
%TO.C,R5*%
X33337258Y-34727500D02*
X32862742Y-34727500D01*
X33337258Y-35772500D02*
X32862742Y-35772500D01*
%TO.C,C4*%
X74740580Y-49260000D02*
X74459420Y-49260000D01*
X74740580Y-48240000D02*
X74459420Y-48240000D01*
%TO.C,J4*%
X24800000Y-30000000D02*
X24800000Y-36000000D01*
X27050000Y-39300000D02*
X27050000Y-38550000D01*
X27050000Y-38550000D02*
X30000000Y-38550000D01*
X24800000Y-26700000D02*
X24800000Y-28500000D01*
X24800000Y-39300000D02*
X25550000Y-39300000D01*
X25550000Y-36000000D02*
X25550000Y-30000000D01*
X24800000Y-28500000D02*
X25550000Y-28500000D01*
X30000000Y-27450000D02*
X30000000Y-33000000D01*
X30760000Y-39310000D02*
X30760000Y-26690000D01*
X24790000Y-26690000D02*
X24790000Y-39310000D01*
X30000000Y-38550000D02*
X30000000Y-33000000D01*
X30760000Y-26690000D02*
X24790000Y-26690000D01*
X27050000Y-27450000D02*
X30000000Y-27450000D01*
X25550000Y-30000000D02*
X24800000Y-30000000D01*
X27050000Y-26700000D02*
X27050000Y-27450000D01*
X24790000Y-39310000D02*
X30760000Y-39310000D01*
X25550000Y-28500000D02*
X25550000Y-26700000D01*
X25550000Y-26700000D02*
X24800000Y-26700000D01*
X24500000Y-38350000D02*
X24500000Y-39600000D01*
X24800000Y-36000000D02*
X25550000Y-36000000D01*
X25550000Y-37500000D02*
X24800000Y-37500000D01*
X25550000Y-39300000D02*
X25550000Y-37500000D01*
X24500000Y-39600000D02*
X25750000Y-39600000D01*
X24800000Y-37500000D02*
X24800000Y-39300000D01*
%TO.C,U1*%
X96970000Y-48870000D02*
X95970000Y-48870000D01*
X96970000Y-74615000D02*
X96970000Y-68195000D01*
X78730000Y-49650000D02*
X78730000Y-48870000D01*
X78730000Y-74615000D02*
X78730000Y-68195000D01*
X96970000Y-74615000D02*
X78730000Y-74615000D01*
X78730000Y-48870000D02*
X79730000Y-48870000D01*
X96970000Y-49650000D02*
X96970000Y-48870000D01*
X96970000Y-68195000D02*
X97350000Y-68195000D01*
%TO.C,J6*%
X123760000Y-27720000D02*
X117760000Y-27720000D01*
X117760000Y-36780000D02*
X117760000Y-37310000D01*
X117760000Y-27190000D02*
X117760000Y-27720000D01*
X115710000Y-26490000D02*
X115710000Y-27190000D01*
X115710000Y-37310000D02*
X115710000Y-38010000D01*
X123760000Y-27720000D02*
X123760000Y-36750000D01*
X117760000Y-27190000D02*
X115710000Y-27190000D01*
X117760000Y-37310000D02*
X115710000Y-37310000D01*
X123760000Y-36780000D02*
X117760000Y-36780000D01*
X113490000Y-26490000D02*
X113490000Y-38010000D01*
X115710000Y-26600000D02*
G75*
G03*
X113503365Y-26428271I-1110000J-1D01*
G01*
X113490000Y-37900000D02*
G75*
G03*
X115710000Y-37900000I1110000J0D01*
G01*
%TO.C,R17*%
X84622500Y-38237258D02*
X84622500Y-37762742D01*
X83577500Y-38237258D02*
X83577500Y-37762742D01*
%TO.C,F1*%
X38690000Y-59852064D02*
X38690000Y-58647936D01*
X40510000Y-59852064D02*
X40510000Y-58647936D01*
%TO.C,C16*%
X80209420Y-41010000D02*
X80490580Y-41010000D01*
X80209420Y-39990000D02*
X80490580Y-39990000D01*
%TO.C,U5*%
X77100000Y-31447500D02*
X79050000Y-31447500D01*
X77100000Y-31447500D02*
X75150000Y-31447500D01*
X77100000Y-26327500D02*
X79050000Y-26327500D01*
X77100000Y-26327500D02*
X73650000Y-26327500D01*
%TO.C,C11*%
X91338748Y-34265000D02*
X91861252Y-34265000D01*
X91338748Y-35735000D02*
X91861252Y-35735000D01*
%TO.C,R4*%
X32862742Y-30772500D02*
X33337258Y-30772500D01*
X32862742Y-29727500D02*
X33337258Y-29727500D01*
%TO.C,U6*%
X79790000Y-37500000D02*
X79790000Y-39300000D01*
X82910000Y-37500000D02*
X82910000Y-38300000D01*
X79790000Y-37500000D02*
X79790000Y-36700000D01*
X82910000Y-37500000D02*
X82910000Y-36700000D01*
%TO.C,U3*%
X76010000Y-51900000D02*
X76010000Y-50600000D01*
X73190000Y-52340000D02*
X73190000Y-50600000D01*
%TO.C,U2*%
X77660000Y-62000000D02*
X77660000Y-63950000D01*
X72540000Y-62000000D02*
X72540000Y-65450000D01*
X77660000Y-62000000D02*
X77660000Y-60050000D01*
X72540000Y-62000000D02*
X72540000Y-60050000D01*
%TO.C,R2*%
X41122500Y-70737258D02*
X41122500Y-70262742D01*
X40077500Y-70737258D02*
X40077500Y-70262742D01*
%TO.C,L1*%
X78700000Y-40950000D02*
X73500000Y-40950000D01*
X78700000Y-35550000D02*
X78700000Y-40950000D01*
X78700000Y-35550000D02*
X73500000Y-35550000D01*
X73500000Y-35550000D02*
X73500000Y-40950000D01*
%TO.C,Q1*%
X100630000Y-47200000D02*
X99130000Y-47200000D01*
X99130000Y-46930000D02*
X98030000Y-46930000D01*
X99130000Y-47200000D02*
X99130000Y-46930000D01*
X100630000Y-40300000D02*
X99130000Y-40300000D01*
X99130000Y-40570000D02*
X96300000Y-40570000D01*
X99130000Y-40300000D02*
X99130000Y-40570000D01*
%TO.C,D4*%
X52550000Y-26100000D02*
X58250000Y-26100000D01*
X52550000Y-30400000D02*
X58250000Y-30400000D01*
X52550000Y-26100000D02*
X52550000Y-30400000D01*
%TO.C,D2*%
X36900000Y-57000000D02*
X28500000Y-57000000D01*
X36900000Y-57000000D02*
X36900000Y-63500000D01*
X36900000Y-63500000D02*
X28500000Y-63500000D01*
%TO.C,Q2*%
X99030000Y-25300000D02*
X99030000Y-25570000D01*
X100530000Y-25300000D02*
X99030000Y-25300000D01*
X99030000Y-32200000D02*
X99030000Y-31930000D01*
X99030000Y-31930000D02*
X97930000Y-31930000D01*
X100530000Y-32200000D02*
X99030000Y-32200000D01*
X99030000Y-25570000D02*
X96200000Y-25570000D01*
D10*
%TO.C,PS1*%
X41750000Y-72700000D02*
X71950000Y-72700000D01*
X71950000Y-72700000D02*
X71950000Y-30800000D01*
X71950000Y-30800000D02*
X41750000Y-30800000D01*
X41750000Y-30800000D02*
X41750000Y-72700000D01*
D12*
%TO.C,R6*%
X74827500Y-55012742D02*
X74827500Y-55487258D01*
X75872500Y-55012742D02*
X75872500Y-55487258D01*
%TO.C,R18*%
X83112742Y-39977500D02*
X83587258Y-39977500D01*
X83112742Y-41022500D02*
X83587258Y-41022500D01*
%TO.C,C13*%
X80088748Y-33515000D02*
X80611252Y-33515000D01*
X80088748Y-34985000D02*
X80611252Y-34985000D01*
%TO.C,C10*%
X104209420Y-67260000D02*
X104490580Y-67260000D01*
X104209420Y-66240000D02*
X104490580Y-66240000D01*
%TO.C,C8*%
X91110000Y-37609420D02*
X91110000Y-37890580D01*
X90090000Y-37609420D02*
X90090000Y-37890580D01*
%TO.C,R8*%
X98260000Y-38477064D02*
X98260000Y-37022936D01*
X96440000Y-38477064D02*
X96440000Y-37022936D01*
%TO.C,C17*%
X91238748Y-29735000D02*
X91761252Y-29735000D01*
X91238748Y-28265000D02*
X91761252Y-28265000D01*
%TO.C,C1*%
X99110000Y-66640580D02*
X99110000Y-66359420D01*
X98090000Y-66640580D02*
X98090000Y-66359420D01*
%TO.C,R12*%
X89987258Y-39977500D02*
X89512742Y-39977500D01*
X89987258Y-41022500D02*
X89512742Y-41022500D01*
D13*
%TO.C,J1*%
X34650000Y-46250000D02*
X34650000Y-44250000D01*
X34650000Y-53250000D02*
X34650000Y-51250000D01*
X23250000Y-40993103D02*
X36988065Y-40993103D01*
X23250000Y-56506897D02*
X36988065Y-56506897D01*
X23250000Y-40993103D02*
X23250000Y-48750000D01*
X41450000Y-43350000D02*
X41450000Y-54150000D01*
X33650000Y-45250000D02*
X35650000Y-45250000D01*
X23250000Y-56506897D02*
X23250000Y-48750000D01*
X36988065Y-56506897D02*
G75*
G03*
X41450000Y-54150000I-1698007J8616545D01*
G01*
X41450000Y-43350000D02*
G75*
G03*
X36988065Y-40993103I-6159942J-6259648D01*
G01*
D12*
%TO.C,R10*%
X78837258Y-31865000D02*
X78362742Y-31865000D01*
X78837258Y-32910000D02*
X78362742Y-32910000D01*
%TO.C,C18*%
X74738748Y-42265000D02*
X75261252Y-42265000D01*
X74738748Y-43735000D02*
X75261252Y-43735000D01*
%TO.C,C14*%
X81090000Y-30496920D02*
X81090000Y-30778080D01*
X82110000Y-30496920D02*
X82110000Y-30778080D01*
%TO.C,D1*%
X67000000Y-25250000D02*
X67000000Y-29150000D01*
X69000000Y-25250000D02*
X69000000Y-29150000D01*
X69000000Y-25250000D02*
X67000000Y-25250000D01*
%TO.C,J7*%
X123860000Y-57990000D02*
X123860000Y-68510000D01*
X117760000Y-57390000D02*
X115710000Y-57390000D01*
X115710000Y-56550000D02*
X115710000Y-57390000D01*
X117760000Y-68510000D02*
X117760000Y-69110000D01*
X113490000Y-56550000D02*
X113490000Y-69950000D01*
X123860000Y-68510000D02*
X117760000Y-68510000D01*
X117760000Y-69110000D02*
X115710000Y-69110000D01*
X117760000Y-57390000D02*
X117760000Y-57990000D01*
X115710000Y-69110000D02*
X115710000Y-69950000D01*
X123860000Y-57990000D02*
X117760000Y-57990000D01*
X115710000Y-56550000D02*
G75*
G03*
X113490000Y-56550000I-1110000J0D01*
G01*
X113490000Y-69950000D02*
G75*
G03*
X115710000Y-69950000I1110000J0D01*
G01*
%TO.C,J2*%
X81250000Y-46975000D02*
X81250000Y-47725000D01*
X93750000Y-47725000D02*
X95550000Y-47725000D01*
X94600000Y-48025000D02*
X95850000Y-48025000D01*
X77940000Y-41765000D02*
X77940000Y-47735000D01*
X78700000Y-45475000D02*
X78700000Y-42525000D01*
X95560000Y-41765000D02*
X77940000Y-41765000D01*
X81250000Y-47725000D02*
X92250000Y-47725000D01*
X77950000Y-46975000D02*
X77950000Y-47725000D01*
X77940000Y-47735000D02*
X95560000Y-47735000D01*
X95550000Y-47725000D02*
X95550000Y-46975000D01*
X79750000Y-47725000D02*
X79750000Y-46975000D01*
X92250000Y-47725000D02*
X92250000Y-46975000D01*
X95560000Y-47735000D02*
X95560000Y-41765000D01*
X94800000Y-45475000D02*
X94800000Y-42525000D01*
X78700000Y-42525000D02*
X86750000Y-42525000D01*
X94800000Y-42525000D02*
X86750000Y-42525000D01*
X77950000Y-45475000D02*
X78700000Y-45475000D01*
X95850000Y-48025000D02*
X95850000Y-46775000D01*
X77950000Y-47725000D02*
X79750000Y-47725000D01*
X79750000Y-46975000D02*
X77950000Y-46975000D01*
X92250000Y-46975000D02*
X81250000Y-46975000D01*
X95550000Y-46975000D02*
X93750000Y-46975000D01*
X93750000Y-46975000D02*
X93750000Y-47725000D01*
X95550000Y-45475000D02*
X94800000Y-45475000D01*
%TO.C,R16*%
X103122500Y-60987258D02*
X103122500Y-60512742D01*
X102077500Y-60987258D02*
X102077500Y-60512742D01*
%TO.C,C6*%
X39990580Y-67240000D02*
X39709420Y-67240000D01*
X39990580Y-68260000D02*
X39709420Y-68260000D01*
%TO.C,R11*%
X82122500Y-27874758D02*
X82122500Y-27400242D01*
X81077500Y-27874758D02*
X81077500Y-27400242D01*
%TO.C,R9*%
X75587258Y-31865000D02*
X75112742Y-31865000D01*
X75587258Y-32910000D02*
X75112742Y-32910000D01*
%TO.C,R13*%
X84622500Y-35237258D02*
X84622500Y-34762742D01*
X83577500Y-35237258D02*
X83577500Y-34762742D01*
%TO.C,C12*%
X78990580Y-24877500D02*
X78709420Y-24877500D01*
X78990580Y-25897500D02*
X78709420Y-25897500D01*
%TO.C,J5*%
X117760000Y-51780000D02*
X117760000Y-52310000D01*
X115710000Y-41490000D02*
X115710000Y-42190000D01*
X115710000Y-52310000D02*
X115710000Y-53010000D01*
X117760000Y-52310000D02*
X115710000Y-52310000D01*
X117760000Y-42190000D02*
X115710000Y-42190000D01*
X123760000Y-42720000D02*
X123760000Y-51750000D01*
X113490000Y-41490000D02*
X113490000Y-53010000D01*
X123760000Y-51780000D02*
X117760000Y-51780000D01*
X117760000Y-42190000D02*
X117760000Y-42720000D01*
X123760000Y-42720000D02*
X117760000Y-42720000D01*
X115710000Y-41600000D02*
G75*
G03*
X113503365Y-41428271I-1110000J-1D01*
G01*
X113490000Y-52900000D02*
G75*
G03*
X115710000Y-52900000I1110000J0D01*
G01*
%TO.C,U7*%
X93500000Y-30440000D02*
X91700000Y-30440000D01*
X93500000Y-33560000D02*
X92700000Y-33560000D01*
X93500000Y-33560000D02*
X94300000Y-33560000D01*
X93500000Y-30440000D02*
X94300000Y-30440000D01*
%TO.C,C3*%
X74990580Y-67260000D02*
X74709420Y-67260000D01*
X74990580Y-66240000D02*
X74709420Y-66240000D01*
%TO.C,Q3*%
X105350000Y-62310000D02*
X104700000Y-62310000D01*
X105350000Y-59190000D02*
X103675000Y-59190000D01*
X105350000Y-62310000D02*
X106000000Y-62310000D01*
X105350000Y-59190000D02*
X106000000Y-59190000D01*
%TO.C,R7*%
X74372500Y-55012742D02*
X74372500Y-55487258D01*
X73327500Y-55012742D02*
X73327500Y-55487258D01*
%TO.C,R14*%
X77272500Y-46237258D02*
X77272500Y-45762742D01*
X76227500Y-46237258D02*
X76227500Y-45762742D01*
%TO.C,U4*%
X93600000Y-39560000D02*
X94400000Y-39560000D01*
X93600000Y-36440000D02*
X94400000Y-36440000D01*
X93600000Y-36440000D02*
X91800000Y-36440000D01*
X93600000Y-39560000D02*
X92800000Y-39560000D01*
%TO.C,D3*%
X33100000Y-31190000D02*
X33750000Y-31190000D01*
X33100000Y-31190000D02*
X31425000Y-31190000D01*
X33100000Y-34310000D02*
X33750000Y-34310000D01*
X33100000Y-34310000D02*
X32450000Y-34310000D01*
%TO.C,C9*%
X104311252Y-62890000D02*
X102888748Y-62890000D01*
X104311252Y-65610000D02*
X102888748Y-65610000D01*
%TO.C,C7*%
X36209420Y-29740000D02*
X36490580Y-29740000D01*
X36209420Y-30760000D02*
X36490580Y-30760000D01*
%TD*%
%LPC*%
D14*
%TO.C,C2*%
X100350000Y-67275000D03*
X100350000Y-65725000D03*
%TD*%
D15*
%TO.C,R3*%
X38850000Y-69675000D03*
X38850000Y-71325000D03*
%TD*%
D16*
%TO.C,C15*%
X90500000Y-30975000D03*
X90500000Y-32525000D03*
%TD*%
D15*
%TO.C,R19*%
X106750000Y-63425000D03*
X106750000Y-65075000D03*
%TD*%
D17*
%TO.C,R1*%
X100175000Y-64250000D03*
X98525000Y-64250000D03*
%TD*%
D18*
%TO.C,R15*%
X94500000Y-26287500D03*
X94500000Y-29212500D03*
%TD*%
D19*
%TO.C,J3*%
X28350000Y-66500000D03*
X28350000Y-67500000D03*
X28350000Y-68500000D03*
X28350000Y-69500000D03*
D20*
X24475000Y-70800000D03*
X24475000Y-65200000D03*
%TD*%
D21*
%TO.C,C5*%
X40575000Y-65250000D03*
X37625000Y-65250000D03*
%TD*%
D17*
%TO.C,R5*%
X33925000Y-35250000D03*
X32275000Y-35250000D03*
%TD*%
D22*
%TO.C,C4*%
X75375000Y-48750000D03*
X73825000Y-48750000D03*
%TD*%
D23*
%TO.C,J4*%
X27250000Y-36750000D03*
D24*
X27250000Y-34250000D03*
X27250000Y-31750000D03*
X27250000Y-29250000D03*
%TD*%
D25*
%TO.C,U1*%
X96350000Y-67005000D03*
X96350000Y-65735000D03*
X96350000Y-64465000D03*
X96350000Y-63195000D03*
X96350000Y-61925000D03*
X96350000Y-60655000D03*
X96350000Y-59385000D03*
X96350000Y-58115000D03*
X96350000Y-56845000D03*
X96350000Y-55575000D03*
X96350000Y-54305000D03*
X96350000Y-53035000D03*
X96350000Y-51765000D03*
X96350000Y-50495000D03*
D26*
X93565000Y-49495000D03*
X92295000Y-49495000D03*
X91025000Y-49495000D03*
X89755000Y-49495000D03*
X88485000Y-49495000D03*
X87215000Y-49495000D03*
X85945000Y-49495000D03*
X84675000Y-49495000D03*
X83405000Y-49495000D03*
X82135000Y-49495000D03*
D25*
X79350000Y-50495000D03*
X79350000Y-51765000D03*
X79350000Y-53035000D03*
X79350000Y-54305000D03*
X79350000Y-55575000D03*
X79350000Y-56845000D03*
X79350000Y-58115000D03*
X79350000Y-59385000D03*
X79350000Y-60655000D03*
X79350000Y-61925000D03*
X79350000Y-63195000D03*
X79350000Y-64465000D03*
X79350000Y-65735000D03*
X79350000Y-67005000D03*
D27*
X88850000Y-59505000D03*
%TD*%
D28*
%TO.C,J6*%
X114600000Y-37750000D03*
X114600000Y-26750000D03*
D29*
X109600000Y-29750000D03*
D30*
X109600000Y-34750000D03*
%TD*%
D31*
%TO.C,R17*%
X84100000Y-37175000D03*
X84100000Y-38825000D03*
%TD*%
D32*
%TO.C,F1*%
X39600000Y-60650000D03*
X39600000Y-57850000D03*
%TD*%
D33*
%TO.C,C16*%
X81125000Y-40500000D03*
X79575000Y-40500000D03*
%TD*%
D34*
%TO.C,U5*%
X79575000Y-26982500D03*
X79575000Y-28252500D03*
X79575000Y-29522500D03*
X79575000Y-30792500D03*
X74625000Y-30792500D03*
X74625000Y-29522500D03*
X74625000Y-28252500D03*
X74625000Y-26982500D03*
%TD*%
D35*
%TO.C,H2*%
X34600000Y-71250000D03*
%TD*%
D36*
%TO.C,C11*%
X90650000Y-35000000D03*
X92550000Y-35000000D03*
%TD*%
D37*
%TO.C,R4*%
X32275000Y-30250000D03*
X33925000Y-30250000D03*
%TD*%
D38*
%TO.C,U6*%
X80400000Y-36362500D03*
X81350000Y-36362500D03*
X82300000Y-36362500D03*
X82300000Y-38637500D03*
X81350000Y-38637500D03*
X80400000Y-38637500D03*
%TD*%
D35*
%TO.C,H1*%
X34600000Y-26250000D03*
%TD*%
D39*
%TO.C,U3*%
X73850000Y-52425000D03*
X74350000Y-52425000D03*
X74850000Y-52425000D03*
X75350000Y-52425000D03*
X75350000Y-50075000D03*
X74850000Y-50075000D03*
X74350000Y-50075000D03*
X73850000Y-50075000D03*
D40*
X74600000Y-51250000D03*
%TD*%
D41*
%TO.C,U2*%
X73195000Y-64475000D03*
X74465000Y-64475000D03*
X75735000Y-64475000D03*
X77005000Y-64475000D03*
X77005000Y-59525000D03*
X75735000Y-59525000D03*
X74465000Y-59525000D03*
X73195000Y-59525000D03*
%TD*%
D31*
%TO.C,R2*%
X40600000Y-71325000D03*
X40600000Y-69675000D03*
%TD*%
D42*
%TO.C,L1*%
X76100000Y-39850000D03*
X76100000Y-36650000D03*
%TD*%
D43*
%TO.C,Q1*%
X97400000Y-41470000D03*
D44*
X103700000Y-43750000D03*
D43*
X97400000Y-46030000D03*
%TD*%
D45*
%TO.C,D4*%
X53950000Y-28250000D03*
X58250000Y-28250000D03*
%TD*%
D46*
%TO.C,D2*%
X35500000Y-60250000D03*
X28700000Y-60250000D03*
%TD*%
D43*
%TO.C,Q2*%
X97300000Y-26470000D03*
D44*
X103600000Y-28750000D03*
D43*
X97300000Y-31030000D03*
%TD*%
D47*
%TO.C,PS1*%
X44525000Y-33905000D03*
X69175000Y-33905000D03*
X44525000Y-69595000D03*
X69175000Y-69595000D03*
%TD*%
D15*
%TO.C,R6*%
X75350000Y-54425000D03*
X75350000Y-56075000D03*
%TD*%
D37*
%TO.C,R18*%
X84175000Y-40500000D03*
X82525000Y-40500000D03*
%TD*%
D36*
%TO.C,C13*%
X81300000Y-34250000D03*
X79400000Y-34250000D03*
%TD*%
D33*
%TO.C,C10*%
X103575000Y-66750000D03*
X105125000Y-66750000D03*
%TD*%
D16*
%TO.C,C8*%
X90600000Y-36975000D03*
X90600000Y-38525000D03*
%TD*%
D35*
%TO.C,H4*%
X104100000Y-71250000D03*
%TD*%
D48*
%TO.C,R8*%
X97350000Y-39212500D03*
X97350000Y-36287500D03*
%TD*%
D36*
%TO.C,C17*%
X90550000Y-29000000D03*
X92450000Y-29000000D03*
%TD*%
D14*
%TO.C,C1*%
X98600000Y-67275000D03*
X98600000Y-65725000D03*
%TD*%
D17*
%TO.C,R12*%
X90575000Y-40500000D03*
X88925000Y-40500000D03*
%TD*%
D49*
%TO.C,J1*%
X32650000Y-42000000D03*
X32650000Y-55500000D03*
D50*
X38650000Y-52350000D03*
X38650000Y-45150000D03*
%TD*%
D17*
%TO.C,R10*%
X77775000Y-32387500D03*
X79425000Y-32387500D03*
%TD*%
D36*
%TO.C,C18*%
X74050000Y-43000000D03*
X75950000Y-43000000D03*
%TD*%
D16*
%TO.C,C14*%
X81600000Y-31412500D03*
X81600000Y-29862500D03*
%TD*%
D51*
%TO.C,D1*%
X68000000Y-25850000D03*
X68000000Y-29150000D03*
%TD*%
D28*
%TO.C,J7*%
X114600000Y-56750000D03*
X114600000Y-69750000D03*
D52*
X109600000Y-66750000D03*
D53*
X109600000Y-63250000D03*
X109600000Y-59750000D03*
%TD*%
D54*
%TO.C,J2*%
X80500000Y-45275000D03*
X83000000Y-45275000D03*
X85500000Y-45275000D03*
X88000000Y-45275000D03*
X90500000Y-45275000D03*
D55*
X93000000Y-45275000D03*
%TD*%
D31*
%TO.C,R16*%
X102600000Y-61575000D03*
X102600000Y-59925000D03*
%TD*%
D22*
%TO.C,C6*%
X40625000Y-67750000D03*
X39075000Y-67750000D03*
%TD*%
D31*
%TO.C,R11*%
X81600000Y-26812500D03*
X81600000Y-28462500D03*
%TD*%
D17*
%TO.C,R9*%
X74525000Y-32387500D03*
X76175000Y-32387500D03*
%TD*%
D31*
%TO.C,R13*%
X84100000Y-34175000D03*
X84100000Y-35825000D03*
%TD*%
D22*
%TO.C,C12*%
X78075000Y-25387500D03*
X79625000Y-25387500D03*
%TD*%
D28*
%TO.C,J5*%
X114600000Y-52750000D03*
X114600000Y-41750000D03*
D29*
X109600000Y-44750000D03*
D30*
X109600000Y-49750000D03*
%TD*%
D56*
%TO.C,U7*%
X92362500Y-31050000D03*
X92362500Y-32000000D03*
X92362500Y-32950000D03*
X94637500Y-32950000D03*
X94637500Y-31050000D03*
%TD*%
D22*
%TO.C,C3*%
X75625000Y-66750000D03*
X74075000Y-66750000D03*
%TD*%
D57*
%TO.C,Q3*%
X104412500Y-59800000D03*
X104412500Y-61700000D03*
X106287500Y-60750000D03*
%TD*%
D35*
%TO.C,H3*%
X104100000Y-36250000D03*
%TD*%
D15*
%TO.C,R7*%
X73850000Y-54425000D03*
X73850000Y-56075000D03*
%TD*%
D31*
%TO.C,R14*%
X76750000Y-46825000D03*
X76750000Y-45175000D03*
%TD*%
D56*
%TO.C,U4*%
X92462500Y-37050000D03*
X92462500Y-38000000D03*
X92462500Y-38950000D03*
X94737500Y-38950000D03*
X94737500Y-37050000D03*
%TD*%
D57*
%TO.C,D3*%
X32162500Y-31800000D03*
X32162500Y-33700000D03*
X34037500Y-32750000D03*
%TD*%
D21*
%TO.C,C9*%
X105075000Y-64250000D03*
X102125000Y-64250000D03*
%TD*%
D33*
%TO.C,C7*%
X35575000Y-30250000D03*
X37125000Y-30250000D03*
%TD*%
M02*
