%TF.GenerationSoftware,KiCad,Pcbnew,(6.0.2)*%
%TF.CreationDate,2022-09-20T17:08:32+02:00*%
%TF.ProjectId,led-board,6c65642d-626f-4617-9264-2e6b69636164,rev?*%
%TF.SameCoordinates,Original*%
%TF.FileFunction,Other,Comment*%
%FSLAX46Y46*%
G04 Gerber Fmt 4.6, Leading zero omitted, Abs format (unit mm)*
G04 Created by KiCad (PCBNEW (6.0.2)) date 2022-09-20 17:08:32*
%MOMM*%
%LPD*%
G01*
G04 APERTURE LIST*
%ADD10C,0.100000*%
%ADD11C,0.150000*%
G04 APERTURE END LIST*
D10*
%TO.C,U1*%
X75311904Y-72851190D02*
X75073809Y-72851190D01*
X75050000Y-73089285D01*
X75073809Y-73065476D01*
X75121428Y-73041666D01*
X75240476Y-73041666D01*
X75288095Y-73065476D01*
X75311904Y-73089285D01*
X75335714Y-73136904D01*
X75335714Y-73255952D01*
X75311904Y-73303571D01*
X75288095Y-73327380D01*
X75240476Y-73351190D01*
X75121428Y-73351190D01*
X75073809Y-73327380D01*
X75050000Y-73303571D01*
X75930952Y-73351190D02*
X75930952Y-73017857D01*
X75930952Y-73065476D02*
X75954761Y-73041666D01*
X76002380Y-73017857D01*
X76073809Y-73017857D01*
X76121428Y-73041666D01*
X76145238Y-73089285D01*
X76145238Y-73351190D01*
X76145238Y-73089285D02*
X76169047Y-73041666D01*
X76216666Y-73017857D01*
X76288095Y-73017857D01*
X76335714Y-73041666D01*
X76359523Y-73089285D01*
X76359523Y-73351190D01*
X76597619Y-73351190D02*
X76597619Y-73017857D01*
X76597619Y-73065476D02*
X76621428Y-73041666D01*
X76669047Y-73017857D01*
X76740476Y-73017857D01*
X76788095Y-73041666D01*
X76811904Y-73089285D01*
X76811904Y-73351190D01*
X76811904Y-73089285D02*
X76835714Y-73041666D01*
X76883333Y-73017857D01*
X76954761Y-73017857D01*
X77002380Y-73041666D01*
X77026190Y-73089285D01*
X77026190Y-73351190D01*
X98311904Y-72851190D02*
X98073809Y-72851190D01*
X98050000Y-73089285D01*
X98073809Y-73065476D01*
X98121428Y-73041666D01*
X98240476Y-73041666D01*
X98288095Y-73065476D01*
X98311904Y-73089285D01*
X98335714Y-73136904D01*
X98335714Y-73255952D01*
X98311904Y-73303571D01*
X98288095Y-73327380D01*
X98240476Y-73351190D01*
X98121428Y-73351190D01*
X98073809Y-73327380D01*
X98050000Y-73303571D01*
X98930952Y-73351190D02*
X98930952Y-73017857D01*
X98930952Y-73065476D02*
X98954761Y-73041666D01*
X99002380Y-73017857D01*
X99073809Y-73017857D01*
X99121428Y-73041666D01*
X99145238Y-73089285D01*
X99145238Y-73351190D01*
X99145238Y-73089285D02*
X99169047Y-73041666D01*
X99216666Y-73017857D01*
X99288095Y-73017857D01*
X99335714Y-73041666D01*
X99359523Y-73089285D01*
X99359523Y-73351190D01*
X99597619Y-73351190D02*
X99597619Y-73017857D01*
X99597619Y-73065476D02*
X99621428Y-73041666D01*
X99669047Y-73017857D01*
X99740476Y-73017857D01*
X99788095Y-73041666D01*
X99811904Y-73089285D01*
X99811904Y-73351190D01*
X99811904Y-73089285D02*
X99835714Y-73041666D01*
X99883333Y-73017857D01*
X99954761Y-73017857D01*
X100002380Y-73041666D01*
X100026190Y-73089285D01*
X100026190Y-73351190D01*
D11*
X85088095Y-71916666D02*
X85564285Y-71916666D01*
X84992857Y-72202380D02*
X85326190Y-71202380D01*
X85659523Y-72202380D01*
X85992857Y-71535714D02*
X85992857Y-72202380D01*
X85992857Y-71630952D02*
X86040476Y-71583333D01*
X86135714Y-71535714D01*
X86278571Y-71535714D01*
X86373809Y-71583333D01*
X86421428Y-71678571D01*
X86421428Y-72202380D01*
X86754761Y-71535714D02*
X87135714Y-71535714D01*
X86897619Y-71202380D02*
X86897619Y-72059523D01*
X86945238Y-72154761D01*
X87040476Y-72202380D01*
X87135714Y-72202380D01*
X87850000Y-72154761D02*
X87754761Y-72202380D01*
X87564285Y-72202380D01*
X87469047Y-72154761D01*
X87421428Y-72059523D01*
X87421428Y-71678571D01*
X87469047Y-71583333D01*
X87564285Y-71535714D01*
X87754761Y-71535714D01*
X87850000Y-71583333D01*
X87897619Y-71678571D01*
X87897619Y-71773809D01*
X87421428Y-71869047D01*
X88326190Y-71535714D02*
X88326190Y-72202380D01*
X88326190Y-71630952D02*
X88373809Y-71583333D01*
X88469047Y-71535714D01*
X88611904Y-71535714D01*
X88707142Y-71583333D01*
X88754761Y-71678571D01*
X88754761Y-72202380D01*
X89230952Y-71535714D02*
X89230952Y-72202380D01*
X89230952Y-71630952D02*
X89278571Y-71583333D01*
X89373809Y-71535714D01*
X89516666Y-71535714D01*
X89611904Y-71583333D01*
X89659523Y-71678571D01*
X89659523Y-72202380D01*
X90564285Y-72202380D02*
X90564285Y-71678571D01*
X90516666Y-71583333D01*
X90421428Y-71535714D01*
X90230952Y-71535714D01*
X90135714Y-71583333D01*
X90564285Y-72154761D02*
X90469047Y-72202380D01*
X90230952Y-72202380D01*
X90135714Y-72154761D01*
X90088095Y-72059523D01*
X90088095Y-71964285D01*
X90135714Y-71869047D01*
X90230952Y-71821428D01*
X90469047Y-71821428D01*
X90564285Y-71773809D01*
X81778571Y-78202380D02*
X81778571Y-77202380D01*
X82350000Y-78202380D02*
X81921428Y-77630952D01*
X82350000Y-77202380D02*
X81778571Y-77773809D01*
X82778571Y-77678571D02*
X83111904Y-77678571D01*
X83254761Y-78202380D02*
X82778571Y-78202380D01*
X82778571Y-77202380D01*
X83254761Y-77202380D01*
X83683333Y-77678571D02*
X84016666Y-77678571D01*
X84159523Y-78202380D02*
X83683333Y-78202380D01*
X83683333Y-77202380D01*
X84159523Y-77202380D01*
X84588095Y-78202380D02*
X84588095Y-77202380D01*
X84969047Y-77202380D01*
X85064285Y-77250000D01*
X85111904Y-77297619D01*
X85159523Y-77392857D01*
X85159523Y-77535714D01*
X85111904Y-77630952D01*
X85064285Y-77678571D01*
X84969047Y-77726190D01*
X84588095Y-77726190D01*
X85588095Y-77821428D02*
X86350000Y-77821428D01*
X87016666Y-77202380D02*
X87207142Y-77202380D01*
X87302380Y-77250000D01*
X87397619Y-77345238D01*
X87445238Y-77535714D01*
X87445238Y-77869047D01*
X87397619Y-78059523D01*
X87302380Y-78154761D01*
X87207142Y-78202380D01*
X87016666Y-78202380D01*
X86921428Y-78154761D01*
X86826190Y-78059523D01*
X86778571Y-77869047D01*
X86778571Y-77535714D01*
X86826190Y-77345238D01*
X86921428Y-77250000D01*
X87016666Y-77202380D01*
X87873809Y-77202380D02*
X87873809Y-78011904D01*
X87921428Y-78107142D01*
X87969047Y-78154761D01*
X88064285Y-78202380D01*
X88254761Y-78202380D01*
X88350000Y-78154761D01*
X88397619Y-78107142D01*
X88445238Y-78011904D01*
X88445238Y-77202380D01*
X88778571Y-77202380D02*
X89350000Y-77202380D01*
X89064285Y-78202380D02*
X89064285Y-77202380D01*
X90350000Y-77202380D02*
X91016666Y-77202380D01*
X90350000Y-78202380D01*
X91016666Y-78202380D01*
X91588095Y-77202380D02*
X91778571Y-77202380D01*
X91873809Y-77250000D01*
X91969047Y-77345238D01*
X92016666Y-77535714D01*
X92016666Y-77869047D01*
X91969047Y-78059523D01*
X91873809Y-78154761D01*
X91778571Y-78202380D01*
X91588095Y-78202380D01*
X91492857Y-78154761D01*
X91397619Y-78059523D01*
X91350000Y-77869047D01*
X91350000Y-77535714D01*
X91397619Y-77345238D01*
X91492857Y-77250000D01*
X91588095Y-77202380D01*
X92445238Y-78202380D02*
X92445238Y-77202380D01*
X93016666Y-78202380D01*
X93016666Y-77202380D01*
X93492857Y-77678571D02*
X93826190Y-77678571D01*
X93969047Y-78202380D02*
X93492857Y-78202380D01*
X93492857Y-77202380D01*
X93969047Y-77202380D01*
D10*
X79776190Y-78563095D02*
X79776190Y-78801190D01*
X80014285Y-78825000D01*
X79990476Y-78801190D01*
X79966666Y-78753571D01*
X79966666Y-78634523D01*
X79990476Y-78586904D01*
X80014285Y-78563095D01*
X80061904Y-78539285D01*
X80180952Y-78539285D01*
X80228571Y-78563095D01*
X80252380Y-78586904D01*
X80276190Y-78634523D01*
X80276190Y-78753571D01*
X80252380Y-78801190D01*
X80228571Y-78825000D01*
X80276190Y-77944047D02*
X79942857Y-77944047D01*
X79990476Y-77944047D02*
X79966666Y-77920238D01*
X79942857Y-77872619D01*
X79942857Y-77801190D01*
X79966666Y-77753571D01*
X80014285Y-77729761D01*
X80276190Y-77729761D01*
X80014285Y-77729761D02*
X79966666Y-77705952D01*
X79942857Y-77658333D01*
X79942857Y-77586904D01*
X79966666Y-77539285D01*
X80014285Y-77515476D01*
X80276190Y-77515476D01*
X80276190Y-77277380D02*
X79942857Y-77277380D01*
X79990476Y-77277380D02*
X79966666Y-77253571D01*
X79942857Y-77205952D01*
X79942857Y-77134523D01*
X79966666Y-77086904D01*
X80014285Y-77063095D01*
X80276190Y-77063095D01*
X80014285Y-77063095D02*
X79966666Y-77039285D01*
X79942857Y-76991666D01*
X79942857Y-76920238D01*
X79966666Y-76872619D01*
X80014285Y-76848809D01*
X80276190Y-76848809D01*
X79450000Y-74750000D02*
X79650000Y-74950000D01*
X79450000Y-74750000D02*
X79250000Y-74950000D01*
X101650000Y-72625000D02*
X101450000Y-72825000D01*
X101650000Y-72625000D02*
X97050000Y-72625000D01*
X79450000Y-74750000D02*
X79450000Y-79350000D01*
X79450000Y-79350000D02*
X79650000Y-79150000D01*
X78650000Y-72625000D02*
X74050000Y-72625000D01*
X74050000Y-72625000D02*
X74250000Y-72425000D01*
X101650000Y-72625000D02*
X101450000Y-72425000D01*
X97050000Y-72625000D02*
X97250000Y-72825000D01*
X74050000Y-72625000D02*
X74250000Y-72825000D01*
X97050000Y-72625000D02*
X97250000Y-72425000D01*
X78650000Y-72625000D02*
X78450000Y-72825000D01*
X78650000Y-72625000D02*
X78450000Y-72425000D01*
X79450000Y-79350000D02*
X79250000Y-79150000D01*
D11*
%TO.C,H2*%
X37400000Y-71250000D02*
G75*
G03*
X37400000Y-71250000I-2800000J0D01*
G01*
%TO.C,H1*%
X37400000Y-26250000D02*
G75*
G03*
X37400000Y-26250000I-2800000J0D01*
G01*
%TO.C,H4*%
X106900000Y-71250000D02*
G75*
G03*
X106900000Y-71250000I-2800000J0D01*
G01*
%TO.C,H3*%
X106900000Y-36250000D02*
G75*
G03*
X106900000Y-36250000I-2800000J0D01*
G01*
%TD*%
M02*
